<svg width="241" height="200" viewBox="0 0 241 200" fill="none" xmlns="http://www.w3.org/2000/svg">
<g id="about_picture">
<path id="bg" opacity="0.24" d="M117.631 0.599921C96.8376 -0.372761 75.1957 -1.20404 56.0984 6.99734C34.0756 16.4585 18.41 37.0306 10.1055 59.3336C2.00947 78.1186 1.35299 92.1049 0.500467 115.861C-0.365037 139.471 6.46835 179.157 26.6562 191.751C39.3142 199.643 49.4253 200.703 64.3466 199.67L178.948 191.751C195.986 190.573 214.477 188.795 226.927 177.221C242.99 162.296 242.706 136.776 236.447 115.861C230.19 94.9459 219.137 75.1536 217.489 53.3904C216.056 34.8838 221.397 9.2298 198.746 4.15214C173.876 -1.40972 143.18 1.79542 117.631 0.599921Z" fill="#D3D3D3"/>
<g id="man">
<path id="Vector" opacity="0.24" d="M88.8262 175.413C82.1964 175.451 75.2465 176.338 69.8371 180.126C68.9326 180.76 68.0411 181.527 67.7123 182.573C66.8467 185.315 70.166 187.47 72.9615 188.237C80.6818 190.359 88.8219 190.221 96.8278 190.071L121.525 189.605C123.611 189.561 126.008 189.368 127.228 187.689C128.293 186.223 127.965 184.089 126.891 182.628C125.818 181.168 124.156 180.246 122.498 179.487C111.974 174.68 100.164 175.348 88.8262 175.413Z" fill="#D3D3D3"/>
<path id="Vector_2" d="M112.281 168.107L112.823 173.678C112.823 173.678 110.659 176.903 107.854 177.105C105.05 177.307 104.085 175.974 104.085 175.974L104.543 167.777" fill="#E9CAC5"/>
<path id="Vector_3" d="M104.085 175.983L104.271 172.696L112.515 170.507L112.823 173.685C112.823 173.685 110.659 176.912 107.854 177.114C105.05 177.315 104.085 175.983 104.085 175.983Z" fill="white"/>
<path id="Vector_4" d="M85.9489 168.698L85.395 174.419C85.395 174.419 87.6064 177.735 90.4972 177.945C93.3879 178.155 94.3659 176.784 94.3659 176.784L93.8943 168.365" fill="#E9CAC5"/>
<path id="Vector_5" d="M94.3659 176.784L94.1799 173.411L85.7109 171.154L85.395 174.419C85.395 174.419 87.6064 177.735 90.4972 177.945C93.3879 178.155 94.3659 176.784 94.3659 176.784Z" fill="white"/>
<path id="Vector_13" d="M117.518 88.6639C117.632 88.5376 117.78 88.446 117.944 88.3997C118.109 88.3534 118.284 88.3544 118.448 88.4025C118.613 88.4925 118.758 88.6149 118.873 88.7624C118.988 88.9097 119.072 89.0789 119.119 89.2595C120.14 91.8304 120.019 94.1101 120.101 96.7539C120.161 98.6135 120.374 100.675 119.971 102.508C119.616 104.128 114.778 108.182 114.103 107.697C113.428 107.214 114.904 105.833 115.869 105.024C116.834 104.214 116.886 102.187 117.029 101.54C117.172 100.893 115.592 100.889 116.016 98.9477C116.332 97.508 116.963 96.8053 116.856 95.3013C116.726 93.5189 116.785 91.7281 117.033 89.958C117.062 89.555 117.187 89.1645 117.397 88.8181C117.433 88.7638 117.473 88.7122 117.518 88.6639Z" fill="#E9CAC5"/>
<path id="Vector_16" d="M77.904 89.3067C77.7898 89.1804 77.6417 89.0888 77.4771 89.0425C77.3123 88.9963 77.1377 88.9973 76.9736 89.0453C76.8079 89.1337 76.6628 89.2557 76.5479 89.4034C76.4331 89.551 76.351 89.7211 76.3071 89.9023C75.2815 92.4732 75.407 94.7486 75.3204 97.3924C75.2642 99.252 75.0521 101.318 75.4503 103.151C75.8051 104.771 80.6433 108.82 81.3227 108.336C82.0022 107.852 80.5178 106.472 79.5528 105.662C78.5878 104.852 78.5358 102.826 78.393 102.179C78.2501 101.532 79.8297 101.532 79.4056 99.5862C79.0897 98.1509 78.4622 97.4438 78.5661 95.9398C78.6954 94.1589 78.6358 92.3694 78.3887 90.6007C78.3609 90.1982 78.2379 89.8077 78.0294 89.461C77.9928 89.4056 77.9508 89.3539 77.904 89.3067Z" fill="#E9CAC5"/>
<path id="Vector_6" d="M92.8684 43.5991C92.8684 43.5991 81.816 48.8878 81.4528 50.6684L81.4508 50.645C81.4508 50.645 76.0165 70.9577 75.6271 74.5484C75.6102 74.7049 75.6107 74.8829 75.6075 75.057C75.5527 75.1514 75.4987 75.2456 75.4542 75.3681C74.9825 76.6664 74.4502 95.3691 74.4502 95.3691C77.302 96.736 79.1206 96.3648 79.1206 96.3648C79.1206 96.3648 81.2083 89.5658 82.3704 85.575C82.4895 89.0676 82.7024 95.5197 82.7024 95.5197C82.7024 95.5197 86.3294 100.177 97.4425 100.177C108.824 100.177 111.754 96.9561 112.261 95.465C112.414 95.0157 112.688 90.4201 112.986 84.7025C114.135 88.6597 116.301 95.7134 116.301 95.7134C116.301 95.7134 118.119 96.0847 120.971 94.7177C120.971 94.7177 120.439 76.015 119.967 74.7167C119.924 74.5992 119.874 74.509 119.822 74.4174C119.819 74.2369 119.816 74.0548 119.798 73.8932C119.405 70.3023 114.332 49.1955 114.332 49.1955C114.332 49.1946 114.332 49.1866 114.332 49.1857C114.082 47.3475 103.773 43.6167 103.773 43.6167L92.8684 43.5991Z" fill="#00C853"/>
<path id="Vector_7" d="M93.9331 47.6312V98.5707C93.9331 98.5707 99.1045 101.09 105.271 98.0307L103.107 44.4089L98.0486 47.9955L93.9331 47.6312Z" fill="#F2FBFF"/>
<path id="Vector_8" d="M92.9029 36.9103C92.9029 36.9103 92.8208 40.7668 92.8683 43.5991C92.9029 45.7073 93.63 49.7566 98.1609 49.7566C102.692 49.7566 103.224 44.6146 103.142 43.5991C103.081 42.8793 103.436 41.4052 103.142 39.1084C102.843 36.6489 93.1539 35.2006 92.9029 36.9103Z" fill="#E9CAC5"/>
<path id="Vector_9" d="M94.712 44.0318C95.1734 44.4584 95.7183 44.7866 96.3132 44.9959C97.1822 45.3239 98.1105 45.4698 99.0395 45.4244C99.6022 45.4073 100.154 45.2606 100.649 44.9959C101.192 44.6488 101.659 44.1988 102.026 43.6719C102.471 43.169 102.817 42.5876 103.047 41.9579C103.146 41.596 103.202 41.2233 103.212 40.8481C103.247 40.0515 103.219 39.2533 103.124 38.4614C100.805 38.7099 98.4856 38.8899 96.1617 39.0527C94.8288 39.147 92.5353 39.4469 93.1324 41.3066C93.44 42.3234 93.9805 43.256 94.712 44.0318Z" fill="#010101" fill-opacity="0.08"/>
<path id="Vector_10" d="M82.7031 95.52C82.7031 95.52 82.1968 103.661 83.4647 127.845C84.7327 152.03 85.3645 168.947 85.3645 168.947C85.3645 168.947 85.5289 170.923 89.731 170.983C93.933 171.042 95.0495 168.292 95.0495 168.292L99.1563 106.318L103.445 169.563C103.445 169.563 108.491 172.435 112.424 170.28C115.216 168.749 112.264 95.4729 112.264 95.4729C112.264 95.4729 98.7799 102.804 82.7031 95.52Z" fill="#606161"/>
<path id="Vector_11" d="M82.7031 95.52C82.7031 95.52 82.1968 103.661 83.4647 127.845C84.7327 152.03 85.3645 168.947 85.3645 168.947C85.3645 168.947 85.5289 170.923 89.731 170.983C93.933 171.042 95.0495 168.292 95.0495 168.292L99.1563 106.318L103.445 169.563C103.445 169.563 108.491 172.435 112.424 170.28C115.216 168.749 112.264 95.4729 112.264 95.4729C112.264 95.4729 98.7799 102.804 82.7031 95.52Z" fill="#373737"/>
<path id="Vector_18" d="M89.2939 175.365C87.7056 174.56 85.966 173.652 84.235 174.08C83.3556 174.345 82.5439 174.793 81.8548 175.395C80.431 176.506 79.0549 177.804 78.4188 179.483C77.7826 181.163 78.0769 183.31 79.5353 184.381C80.6215 185.182 82.0755 185.238 83.4301 185.238C85.1138 185.296 86.7975 185.122 88.4326 184.719C89.6669 184.332 90.8496 183.798 91.9552 183.13C93.2535 182.389 94.5734 181.518 95.2442 180.19C95.7505 179.188 95.8586 177.011 94.5864 176.416C93.9849 176.137 92.9029 176.544 92.1673 176.416C91.1593 176.218 90.1893 175.864 89.2939 175.365Z" fill="#606161"/>
<path id="Vector_19" d="M108.568 175.365C110.152 174.56 111.892 173.652 113.623 174.08C114.503 174.345 115.314 174.793 116.003 175.395C117.427 176.506 118.803 177.804 119.439 179.483C120.075 181.163 119.781 183.31 118.327 184.381C117.241 185.182 115.782 185.238 114.432 185.238C112.748 185.296 111.064 185.122 109.43 184.719C108.195 184.332 107.012 183.798 105.907 183.13C104.609 182.389 103.31 181.518 102.618 180.19C102.112 179.188 102.003 177.011 103.276 176.416C103.878 176.137 104.959 176.544 105.695 176.416C106.703 176.218 107.673 175.864 108.568 175.365Z" fill="#606161"/>
<path id="Vector_20" d="M89.3154 24.8184C89.3942 29.2239 90.0414 33.6015 91.2412 37.8445C91.4858 38.9276 91.9399 39.9534 92.5784 40.8654C93.3497 41.8083 94.4312 42.4528 95.6336 42.6866C96.8213 42.9039 98.0425 42.863 99.2125 42.5666C100.817 42.2603 102.276 41.4397 103.362 40.2313C104 39.398 104.486 38.4614 104.799 37.4632C105.982 34.0878 106.356 30.4869 105.894 26.9437C105.665 25.2297 105.167 23.4257 103.868 22.363C103.088 21.7849 102.175 21.4039 101.212 21.2532C97.751 20.5726 94.1585 21.1331 91.0767 22.8343C90.5794 23.0664 90.1524 23.424 89.839 23.8713C89.5718 24.403 89.441 24.9917 89.4583 25.5853" fill="#E9CAC5"/>
<path id="Vector_21" d="M89.9904 32.3642C89.8519 30.9801 89.1552 29.7246 88.5104 28.5077C87.8656 27.2908 87.2511 25.9367 87.3073 24.5655C87.3636 23.1944 88.3156 21.7289 89.7091 21.5661C90.0597 19.6936 91.0073 17.8553 92.5999 16.8013C94.8848 15.2801 97.9141 15.6786 100.554 16.4627C102.687 17.0969 104.972 18.1766 105.773 20.2163C106.025 20.9565 106.171 21.7282 106.205 22.5087C106.431 25.2768 106.6 28.2763 105.054 30.5902C105.11 28.5909 104.869 26.5943 104.34 24.6641C100.76 26.0705 96.7896 26.1587 93.1495 24.9126C89.259 23.58 89.7523 29.9602 89.9904 32.3642Z" fill="#606161"/>
</g>
<g id="item">
<path id="Vector_23" d="M178.88 41.6324C182.018 41.5382 185.156 41.5181 188.293 41.5724C188.452 40.57 188.303 39.5431 187.864 38.6259C187.427 37.7087 186.718 36.9436 185.834 36.4305C185.402 36.1819 184.865 35.9463 184.727 35.462C184.588 34.9779 184.883 34.5365 185.033 34.0823C185.19 33.6252 185.203 33.132 185.072 32.6673C184.941 32.2025 184.671 31.7877 184.298 31.4771C183.913 31.1828 183.435 31.0312 182.948 31.0484C182.461 31.0657 181.996 31.2505 181.632 31.5713C181.335 31.8773 181.12 32.2513 181.004 32.6597C180.738 33.4257 180.781 34.2643 181.126 34.9993C181.324 35.2683 181.442 35.5879 181.463 35.9205C181.429 36.2762 181.117 36.5291 180.854 36.7775C180.198 37.4033 179.683 38.1593 179.343 38.996C179.003 39.8327 178.845 40.7311 178.88 41.6324Z" fill="#BABABA"/>
<path id="Vector_24" opacity="0.24" d="M171.762 33.8542H132.593C131.589 33.8542 130.776 34.66 130.776 35.6539V35.6582C130.776 36.6522 131.589 37.4579 132.593 37.4579H171.762C172.765 37.4579 173.579 36.6522 173.579 35.6582V35.6539C173.579 34.66 172.765 33.8542 171.762 33.8542Z" fill="#BABABA"/>
</g>
<g id="home">
<g id="Union">
<path id="path923" d="M176.207 59.3588C176.272 59.4105 176.353 59.4393 176.437 59.4408C176.507 59.4446 176.578 59.4299 176.64 59.398L182.777 56.1329L188.874 59.2567C188.918 59.2794 188.967 59.2934 189.016 59.2977C189.065 59.3021 189.116 59.2968 189.163 59.2821C189.21 59.2674 189.254 59.2435 189.293 59.2119C189.331 59.1803 189.362 59.1417 189.385 59.0981C189.408 59.0544 189.422 59.0068 189.426 58.9578C189.43 58.9087 189.425 58.8593 189.41 58.8124C189.395 58.7655 189.372 58.7218 189.34 58.6841C189.308 58.6464 189.268 58.6153 189.225 58.5924L182.751 55.2844L176.259 58.7339C176.187 58.774 176.128 58.837 176.095 58.9131C176.061 58.9892 176.054 59.0742 176.074 59.1548C176.094 59.2353 176.141 59.307 176.207 59.3588Z" fill="#BABABA"/>
<path id="path925" d="M187.917 69.2749V59.5266L182.794 56.8743L177.701 59.5266V69.2749H181.444V63.1303H184.538V69.2749H187.917Z" fill="#BABABA"/>
</g>
<path id="Vector_25" opacity="0.24" d="M172.767 60.0913H133.599C132.595 60.0913 131.781 60.897 131.781 61.891V61.8952C131.781 62.8893 132.595 63.695 133.599 63.695H172.767C173.771 63.695 174.585 62.8893 174.585 61.8952V61.891C174.585 60.897 173.771 60.0913 172.767 60.0913Z" fill="#BABABA"/>
</g>
<g id="heart">
<path id="Vector_26" d="M182.361 92.3786C181.132 92.0744 177.71 89.7305 176.813 87.5666C176.614 87.1114 176.504 86.6228 176.489 86.1268C176.518 85.4377 176.776 84.7773 177.223 84.2482C177.67 83.719 178.28 83.3506 178.96 83.2002C179.655 83.0533 180.38 83.1264 181.031 83.4094C181.68 83.6923 182.226 84.1709 182.587 84.7771C182.99 84.1317 183.599 83.6373 184.317 83.3716C186.274 82.6775 187.701 84.5371 187.78 85.1113C188.394 89.9404 182.361 92.3786 182.361 92.3786Z" fill="#BABABA"/>
<path id="Vector_27" opacity="0.24" d="M172.767 85.4092H133.599C132.595 85.4092 131.781 86.2149 131.781 87.2088V87.2131C131.781 88.207 132.595 89.0128 133.599 89.0128H172.767C173.771 89.0128 174.585 88.207 174.585 87.2131V87.2088C174.585 86.2149 173.771 85.4092 172.767 85.4092Z" fill="#BABABA"/>
</g>
<g id="dollar">
<path id="Vector_28" d="M182.482 120.978V119.157C181.495 119.153 180.529 118.877 179.692 118.36L180.124 117.152C180.907 117.654 181.818 117.923 182.751 117.927C184.049 117.927 184.915 117.186 184.915 116.157C184.915 115.129 184.204 114.551 182.854 114.015C180.993 113.291 179.847 112.46 179.847 110.891C179.847 109.392 180.925 108.256 182.599 107.986V106.161H183.729V107.914C184.561 107.92 185.377 108.136 186.101 108.543L185.646 109.735C184.951 109.327 184.156 109.115 183.348 109.122C181.942 109.122 181.414 109.953 181.414 110.677C181.414 111.611 182.089 112.082 183.677 112.734C185.556 113.492 186.503 114.448 186.503 116.037C186.503 117.46 185.499 118.797 183.621 119.106V120.983L182.482 120.978Z" fill="#BABABA"/>
<path id="Vector_29" opacity="0.24" d="M172.767 111.878H133.599C132.595 111.878 131.781 112.684 131.781 113.678V113.682C131.781 114.676 132.595 115.481 133.599 115.481H172.767C173.771 115.481 174.585 114.676 174.585 113.682V113.678C174.585 112.684 173.771 111.878 172.767 111.878Z" fill="#BABABA"/>
</g>
<g id="job">
<path id="Union_2" fill-rule="evenodd" clip-rule="evenodd" d="M185.244 137.742C185.255 137.652 185.261 137.56 185.261 137.468C185.261 136.868 185.02 136.293 184.592 135.868C184.163 135.444 183.582 135.205 182.976 135.205H181.531C180.924 135.205 180.344 135.444 179.915 135.868C179.487 136.293 179.246 136.868 179.246 137.468C179.246 137.56 179.251 137.652 179.262 137.742H176.774C175.683 137.742 174.797 138.619 174.797 139.7V145.391C174.797 146.472 175.683 147.349 176.774 147.349H188.372C189.465 147.349 190.35 146.472 190.35 145.391V139.7C190.35 138.619 189.465 137.742 188.372 137.742H185.244ZM183.699 137.742C183.727 137.662 183.742 137.577 183.742 137.49C183.742 137.288 183.661 137.095 183.518 136.953C183.374 136.811 183.18 136.731 182.976 136.731H181.531C181.327 136.731 181.132 136.811 180.988 136.953C180.846 137.095 180.764 137.288 180.764 137.49C180.764 137.577 180.779 137.662 180.808 137.742H183.699Z" fill="#BABABA"/>
<path id="Vector_30" opacity="0.24" d="M171.762 139.576H132.593C131.589 139.576 130.776 140.382 130.776 141.376V141.38C130.776 142.374 131.589 143.179 132.593 143.179H171.762C172.765 143.179 173.579 142.374 173.579 141.38V141.376C173.579 140.382 172.765 139.576 171.762 139.576Z" fill="#BABABA"/>
</g>
<g id="doc">
<path id="Exclude" fill-rule="evenodd" clip-rule="evenodd" d="M187.853 173.979H176.723V161.262L186.071 161.245L187.853 163.083V173.979ZM185.569 169.459H179.22V170.658H185.569V169.459ZM179.22 165.589H185.569V166.789H179.22V165.589Z" fill="#BABABA"/>
<path id="Vector_31" opacity="0.24" d="M172.767 165.502H133.599C132.595 165.502 131.781 166.308 131.781 167.302V167.306C131.781 168.3 132.595 169.106 133.599 169.106H172.767C173.771 169.106 174.585 168.3 174.585 167.306V167.302C174.585 166.308 173.771 165.502 172.767 165.502Z" fill="#BABABA"/>
</g>
</g>
</svg>
