<?xml version="1.0" encoding="UTF-8" standalone="no"?>
<!DOCTYPE svg PUBLIC "-//W3C//DTD SVG 1.1//EN" "http://www.w3.org/Graphics/SVG/1.1/DTD/svg11.dtd">
<svg width="100%" height="100%" viewBox="0 0 200 190" version="1.1" xmlns="http://www.w3.org/2000/svg" xmlns:xlink="http://www.w3.org/1999/xlink" xml:space="preserve" xmlns:serif="http://www.serif.com/" style="fill-rule:evenodd;clip-rule:evenodd;stroke-linejoin:round;stroke-miterlimit:2;">
    <g id="portfolio_picture">
        <path id="Vector" d="M69.398,6.438C60.504,13.295 55.921,24.305 48.266,32.515C37.068,44.538 19.913,49.94 9.547,62.665C-2.439,77.364 -2.493,99.322 5.76,116.398C9.997,125.183 16.383,134.169 14.413,143.705C13.466,148.332 10.607,152.373 9.481,156.957C7.496,165.028 11.341,173.746 17.575,179.249C23.809,184.753 32.062,187.46 40.277,188.798C67.336,193.2 94.695,184.144 122.104,183.659C130.186,183.512 138.307,184.113 146.336,183.163C167.282,180.688 186.34,167.235 196.846,148.983C198.47,146.172 199.953,143.123 199.992,139.877C200.047,136.569 198.629,133.439 197.305,130.407C193.032,120.649 189.405,110.496 188.22,99.92C186.969,88.808 188.461,77.554 187.649,66.4C186.173,46.155 175.384,25.267 156.504,17.747C141.158,11.635 122.733,16.172 107.954,8.78C101.74,5.678 99.682,0.931 92.003,0.163C84.064,-0.636 75.745,1.532 69.398,6.438Z" style="fill:rgb(194,194,194);fill-opacity:0.24;fill-rule:nonzero;"/>
        <path id="Vector_2" d="M60.916,161.949C52.48,161.902 42.358,162.802 38.389,170.24C51.688,179.16 68.649,180.211 84.678,180.215C92.057,180.215 99.48,180.06 106.797,179.052C116.79,177.656 126.481,174.669 136.125,171.683L147.042,168.317C148.079,167.995 149.299,167.479 149.454,166.405C150.577,158.815 119.159,162.119 114.184,162.251C96.47,162.709 78.646,162.053 60.916,161.949Z" style="fill:rgb(194,194,194);fill-opacity:0.24;fill-rule:nonzero;"/>
        <path id="Vector_3" d="M88.088,41.505C88.088,41.505 80.763,44.674 79.9,45.383C79.124,46.027 81.221,89.956 81.38,92.105C81.54,94.253 93.257,94.61 98.338,93.641C101.723,92.946 105.035,91.935 108.23,90.62C108.23,90.62 109.834,45.244 108.836,44.441C107.838,43.638 98.14,40.633 98.14,40.633L88.088,41.505Z" style="fill:rgb(0,200,83);fill-rule:nonzero;"/>
        <path id="Vector_4" d="M105.686,43.987C105.686,43.987 107.923,43.84 109.446,44.763C110.968,45.686 125.292,58.19 125.65,61.87C126.007,65.55 123.129,67.877 121.874,67.625C120.62,67.373 116.755,63.584 115.889,62.394C115.023,61.203 107.344,59.617 107.344,59.617L105.686,43.987Z" style="fill:rgb(0,200,83);fill-rule:nonzero;"/>
        <path id="Vector_5" d="M80.643,69.582C80.644,69.88 80.742,70.167 80.917,70.383C81.092,70.599 81.33,70.728 81.583,70.745C86.247,71.926 90.803,68.693 95.475,67.553C97.594,67.047 99.826,66.96 101.771,65.843C104.154,64.475 105.751,61.775 107.236,59.185L111.104,52.474C111.719,51.397 112.349,49.998 111.773,48.894C111.324,48.037 110.299,47.827 109.483,48.133C108.667,48.438 108.017,49.14 107.375,49.806C104.154,53.14 100.616,56.022 96.832,58.397C95.225,59.456 93.524,60.302 91.758,60.918C88.664,61.921 83.126,61.078 80.001,61.237C79.985,61.256 80.256,67.088 80.643,69.582Z" style="fill:rgb(1,1,1);fill-opacity:0.05;fill-rule:nonzero;"/>
        <path id="Vector_6" d="M121.789,56.122C122.682,56.527 123.457,57.152 124.042,57.937C125.055,59.318 126.803,61.323 127.149,62.979C127.56,64.899 125.844,67.614 123.867,67.959C122.652,68.142 121.41,68.005 120.265,67.561C119.119,67.116 118.11,66.381 117.338,65.426C116.582,64.454 116.065,63.319 115.829,62.111C115.593,60.903 115.644,59.657 115.978,58.473C116.782,55.552 119.536,55.099 121.789,56.122Z" style="fill:rgb(194,194,194);fill-rule:nonzero;"/>
        <path id="Vector_7" d="M101.441,164.26C101.441,164.26 100.563,170.042 101.052,170.698C101.542,171.353 104.307,171.14 106.02,170.76C107.733,170.38 108.148,168.169 108.148,168.169L108.265,166.35L101.441,164.26Z" style="fill:rgb(234,212,208);fill-rule:nonzero;"/>
        <path id="Vector_8" d="M77.85,161.565C77.85,161.565 76.094,169.41 76.506,170.097C76.918,170.783 80.002,169.081 81.734,168.867C83.466,168.654 83.633,165.862 83.633,165.862L83.928,164.062L77.85,161.565Z" style="fill:rgb(234,212,208);fill-rule:nonzero;"/>
        <path id="Vector_9" d="M87.766,37.212C87.766,37.212 88.41,41.893 87.898,43.627C87.385,45.36 89.766,50.549 93.296,50.867C96.827,51.185 97.371,45.19 97.437,44.484C97.503,43.778 96.474,43.32 96.982,41.598C97.491,39.876 88.309,35.126 87.766,37.212Z" style="fill:rgb(234,212,208);fill-rule:nonzero;"/>
        <path id="Vector_10" d="M96.982,41.594C96.594,42.932 97.11,43.506 97.34,44.022C96.492,44.724 95.414,45.088 94.314,45.046C92.193,44.852 89.172,42.804 88.045,39.5L87.987,39.318C87.89,38.135 87.766,37.208 87.766,37.208C88.309,35.125 97.495,39.865 96.982,41.594Z" style="fill:rgb(186,167,163);fill-rule:nonzero;"/>
        <path id="Vector_11" d="M88.026,42.967C88.026,42.967 90.271,49.882 92.636,50.805C92.636,50.805 93.265,51.216 91.405,52.116C89.544,53.016 85.074,47.28 86.13,43.464C86.247,42.978 86.487,42.53 86.827,42.163C87.167,41.797 87.596,41.523 88.072,41.37L88.026,42.967Z" style="fill:white;fill-rule:nonzero;"/>
        <path id="Vector_12" d="M96.92,42.3C96.92,42.3 97.262,47.264 94.978,50.445C94.978,50.445 95.708,51.779 96.415,51.841C97.122,51.903 99.27,47.831 98.85,44.592C98.602,42.715 97.32,41.827 96.92,42.3Z" style="fill:white;fill-rule:nonzero;"/>
        <path id="Vector_13" d="M81.734,92.144L80.277,121.797L77.485,162.907C77.485,162.907 79.089,164.826 83.699,164.888L92.015,123.069L95.922,101.816L99.293,122.534L100.695,165.711C100.695,165.711 103.962,165.776 108.199,166.16L110.949,123.581L108.23,90.616L81.734,92.144Z" style="fill:rgb(96,97,97);fill-rule:nonzero;"/>
        <path id="Vector_14" d="M81.734,92.144L80.277,121.797L77.485,162.907C77.485,162.907 79.089,164.826 83.699,164.888L92.015,123.069L95.922,101.816L99.293,122.534L100.695,165.711C100.695,165.711 103.962,165.776 108.199,166.16L110.949,123.581L108.23,90.616L81.734,92.144Z" style="fill:url(#_Linear1);fill-rule:nonzero;"/>
        <g id="Group-2" serif:id="Group 2">
            <g id="Vector_15">
                <path d="M100.346,28.028C100.346,28.028 100.225,37.262 99.293,39.663C98.361,42.064 96.054,43.999 93.933,43.805C91.813,43.611 88.795,41.563 87.668,38.263C86.542,34.963 86.534,27.128 86.985,26.112C87.436,25.096 89.867,21.943 95.46,22.963C99.317,23.669 100.474,26.616 100.346,28.028Z" style="fill:rgb(234,212,208);fill-rule:nonzero;"/>
                <path d="M87.152,32.17C87.152,32.17 86.989,30.022 85.513,30.6C84.037,31.177 85.451,35.219 86.127,35.641C86.425,35.864 86.781,35.998 87.152,36.029" style="fill:rgb(234,212,208);fill-rule:nonzero;"/>
            </g>
            <path id="Vector_16" d="M96.559,20.563C95.881,19.8 95.065,19.173 94.155,18.713C93.245,18.32 92.267,18.109 91.277,18.092C89.377,18.003 87.237,18.461 86.196,20.031C85.521,21.067 85.447,22.358 85.521,23.611C85.545,23.778 85.524,23.948 85.458,24.103C85.264,24.468 84.736,24.394 84.324,24.39C82.689,24.39 81.582,26.33 81.947,27.916C82.429,30.006 84.48,30.421 85.392,32.05C85.54,32.314 85.746,32.608 86.049,32.616C86.437,32.616 86.643,32.19 86.756,31.84C87.323,29.979 87.07,28.23 88.41,26.589C88.496,26.461 88.626,26.368 88.775,26.33C89.234,26.279 89.304,27.132 89.762,27.198C90.181,26.663 90.783,26.058 91.436,26.264C91.816,26.45 92.126,26.753 92.321,27.128C92.856,27.874 93.534,28.506 94.318,28.984C95.101,29.463 95.972,29.78 96.881,29.916C97.789,30.052 98.715,30.005 99.605,29.776C100.494,29.548 101.329,29.143 102.058,28.587C102.575,28.235 102.962,27.722 103.158,27.128C103.371,26.33 103.006,25.503 102.629,24.767C102.349,24.123 101.954,23.536 101.464,23.033C101.214,22.783 100.906,22.599 100.567,22.496C100.228,22.394 99.869,22.377 99.522,22.447C99.239,22.583 98.927,22.644 98.613,22.626C98.408,22.548 98.229,22.413 98.097,22.238C97.576,21.699 97.079,21.113 96.559,20.563Z" style="fill:rgb(96,97,97);fill-rule:nonzero;"/>
        </g>
        <g id="Vector_17">
            <path d="M120.313,62.235C120.313,62.235 118.445,59.396 122.597,56.444C126.749,53.493 139.546,45.333 139.546,45.333L140.358,50.045C140.358,50.045 128.015,65.911 124.799,65.395C123.859,65.245 122.967,64.882 122.189,64.334C121.412,63.786 120.77,63.068 120.313,62.235Z" style="fill:rgb(234,212,208);fill-rule:nonzero;"/>
            <path d="M139.546,45.333C139.867,44.77 140.215,44.224 140.591,43.697C140.828,43.367 141.127,43.099 141.368,42.785C141.729,42.312 141.589,41.385 141.616,40.792C141.615,40.133 141.773,39.484 142.075,38.899C142.129,38.789 142.218,38.699 142.327,38.643C142.4,38.62 142.478,38.617 142.553,38.635C142.627,38.653 142.696,38.691 142.75,38.744C142.861,38.853 142.946,38.986 142.999,39.132C143.278,39.761 143.449,40.432 143.504,41.118C143.539,41.626 143.69,42.029 144.207,41.819C144.699,41.624 145.211,41.481 145.733,41.393C146.203,41.311 147.675,41.005 147.854,41.703C148.18,42.96 146.157,47.563 146.029,47.908C145.9,48.254 140.354,50.069 140.354,50.069L139.546,45.333Z" style="fill:rgb(234,212,208);fill-rule:nonzero;"/>
        </g>
        <path id="Vector_18" d="M70.645,170.861C70.327,171.159 69.989,171.536 70.055,171.966C70.121,172.397 70.521,172.649 70.901,172.831C73.543,174.095 76.65,173.882 79.524,173.292C80.588,173.075 81.703,172.773 82.448,171.982C82.864,171.512 83.162,170.951 83.318,170.345C83.549,169.555 83.627,168.728 83.548,167.909C83.553,167.748 83.521,167.588 83.453,167.441C83.386,167.294 83.285,167.165 83.159,167.064C82.991,166.984 82.805,166.948 82.619,166.959C80.705,166.917 77.939,166.284 76.18,167.048C74.12,167.975 72.244,169.267 70.645,170.861Z" style="fill:rgb(96,97,97);fill-rule:nonzero;"/>
        <path id="Vector_19" d="M102.253,168.611C101.803,168.497 101.332,168.504 100.886,168.631C100.617,168.759 100.387,168.955 100.218,169.2C100.05,169.445 99.949,169.731 99.926,170.027C99.887,170.621 99.955,171.218 100.128,171.788C100.203,172.278 100.395,172.744 100.688,173.145C101.097,173.549 101.625,173.812 102.195,173.897C103.267,174.111 104.356,174.231 105.449,174.258L112.324,174.627C112.834,174.714 113.359,174.617 113.804,174.351C114.037,174.124 114.187,173.825 114.23,173.502C114.273,173.179 114.206,172.851 114.041,172.571C113.693,172.02 113.214,171.563 112.646,171.241C111.326,170.368 109.458,168.914 107.865,168.673C107.108,168.549 106.164,168.825 105.387,168.829C104.338,168.836 103.291,168.763 102.253,168.611Z" style="fill:rgb(96,97,97);fill-rule:nonzero;"/>
        <path id="Vector_20" d="M70.645,170.861C70.327,171.159 69.989,171.536 70.055,171.966C70.121,172.397 70.521,172.649 70.901,172.831C73.543,174.095 76.65,173.882 79.524,173.292C80.588,173.075 81.703,172.773 82.448,171.982C82.864,171.512 83.162,170.951 83.318,170.345C83.549,169.555 83.627,168.728 83.548,167.909C83.553,167.748 83.521,167.588 83.453,167.441C83.386,167.294 83.285,167.165 83.159,167.064C82.991,166.984 82.805,166.948 82.619,166.959C80.705,166.917 77.939,166.284 76.18,167.048C74.12,167.975 72.244,169.267 70.645,170.861Z" style="fill:url(#_Linear2);fill-rule:nonzero;"/>
        <path id="Vector_21" d="M102.253,168.611C101.803,168.497 101.332,168.504 100.886,168.631C100.617,168.759 100.387,168.955 100.218,169.2C100.05,169.445 99.949,169.731 99.926,170.027C99.887,170.621 99.955,171.218 100.128,171.788C100.203,172.278 100.395,172.744 100.688,173.145C101.097,173.549 101.625,173.812 102.195,173.897C103.267,174.111 104.356,174.231 105.449,174.258L112.324,174.627C112.834,174.714 113.359,174.617 113.804,174.351C114.037,174.124 114.187,173.825 114.23,173.502C114.273,173.179 114.206,172.851 114.041,172.571C113.693,172.02 113.214,171.563 112.646,171.241C111.326,170.368 109.458,168.914 107.865,168.673C107.108,168.549 106.164,168.825 105.387,168.829C104.338,168.836 103.291,168.763 102.253,168.611Z" style="fill:url(#_Linear3);fill-rule:nonzero;"/>
        <path id="Vector_22" d="M67.864,77.523C71.018,78.942 74.231,80.222 77.504,81.362C78.325,81.683 79.184,81.897 80.06,81.998C82.033,82.142 83.893,81.18 85.637,80.249C86.523,79.772 87.548,79.039 87.397,78.046C87.314,77.72 87.139,77.425 86.893,77.194C86.647,76.964 86.341,76.809 86.01,76.747C85.348,76.635 84.676,76.598 84.006,76.638C81.598,76.6 79.345,75.541 77.228,74.366C74.828,73.028 72.49,71.476 70.746,69.359C70.531,69.031 70.235,68.764 69.888,68.583C69.576,68.484 69.242,68.473 68.925,68.552C64.221,69.433 63.662,75.638 67.864,77.523Z" style="fill:url(#_Linear4);fill-rule:nonzero;"/>
        <g id="like">
            <g id="Vector_23">
                <path d="M96.475,107.825C89.271,107.937 82.08,108.033 74.877,108.173C74.071,108.2 73.822,107.964 73.749,107.213C73.447,103.608 73.101,100.014 72.723,96.408C72.421,93.243 72.046,90.083 71.74,86.918C71.482,84.187 71.253,81.483 70.991,78.763C70.762,76.279 70.528,73.796 70.254,71.312C70.17,70.619 70.415,70.465 71.108,70.465C77.071,70.383 83.002,70.287 88.965,70.19C90.978,70.159 92.992,70.132 95.033,70.147C95.168,70.125 95.306,70.134 95.436,70.174C95.666,70.271 95.862,70.429 95.999,70.631C96.452,71.11 96.74,71.711 96.825,72.353C96.834,72.55 96.868,72.746 96.926,72.937C96.972,73.096 97.01,73.257 97.038,73.42C97.101,73.992 97.112,74.568 97.07,75.142L97.618,106.73C97.626,107.786 97.626,107.786 96.475,107.825Z" style="fill:rgb(215,241,221);fill-rule:nonzero;"/>
                <path d="M163.007,67.492C162.671,69.363 161.538,70.598 159.951,71.535C159.602,71.745 159.208,71.903 158.859,72.128C158.116,72.627 158.047,73.11 158.713,73.691C160.564,75.392 161.436,78.727 158.83,81.025C157.996,81.738 157.089,82.365 156.123,82.897C155.177,83.423 155.059,83.973 155.92,84.613C156.353,84.91 156.717,85.292 156.99,85.734C157.262,86.176 157.437,86.669 157.503,87.181C157.564,87.576 157.677,87.972 157.767,88.368C157.316,91.093 155.497,92.668 153.066,93.744C152.12,94.139 152.031,94.582 152.802,95.219C153.673,95.891 154.293,96.824 154.564,97.874C155.087,99.986 154.068,101.434 152.615,102.767C152.307,103.052 151.974,103.277 151.665,103.558C150.297,104.745 148.742,105.172 146.879,105.172C138.886,105.216 130.909,105.386 122.904,105.528C122.64,105.528 122.38,105.6 122.116,105.615C121.827,105.577 121.535,105.553 121.243,105.544C119.713,105.572 118.199,105.584 116.672,105.615L114.371,105.655C113.689,105.735 112.999,105.722 112.321,105.615C112.186,105.593 112.049,105.593 111.915,105.615C111.452,105.704 110.985,105.765 110.514,105.797C110.097,105.787 109.685,105.705 109.296,105.556C108.518,105.221 107.772,104.817 107.068,104.349C106.382,103.954 105.728,103.515 105.038,103.163C104.771,103.002 104.463,102.918 104.149,102.921C103.191,102.894 102.229,102.894 101.255,102.949C100.67,102.981 100.495,102.779 100.495,102.213C100.495,99.092 100.394,95.959 100.349,92.838C100.236,86.213 100.119,79.597 100,72.991C100,72.223 100.13,71.741 100.918,71.361C103.93,69.925 106.073,67.555 108.022,64.96C110.591,61.505 112.924,57.89 115.008,54.137C115.447,53.373 115.897,52.618 116.336,51.854C117.395,49.967 118.459,48.08 119.506,46.178C119.693,45.792 119.787,45.37 119.782,44.943C119.778,44.77 119.749,44.598 119.697,44.433C119.668,44.26 119.653,44.086 119.652,43.911L119.652,42.617C119.652,41.767 119.652,40.916 119.62,40.066L119.534,34.959C119.506,34.377 119.506,33.772 119.49,33.214C119.473,33.002 119.511,32.79 119.601,32.597C119.69,32.403 119.828,32.235 120.001,32.106C122.068,30.318 124.775,30.73 126.695,32.035C127.235,32.403 127.426,33.257 127.743,33.894C129.191,36.857 130.362,39.94 131.242,43.108C131.9,45.481 131.737,47.855 131.331,50.228C130.678,53.888 130.02,57.531 129.366,61.206C129.277,61.716 129.22,62.227 129.147,62.789C129.316,62.816 129.487,62.83 129.659,62.832C139.292,62.678 148.945,62.563 158.595,62.365C159.254,62.349 159.909,62.478 160.511,62.742C161.113,63.006 161.645,63.399 162.069,63.892C162.493,64.385 162.798,64.964 162.96,65.588C163.123,66.211 163.139,66.862 163.007,67.492Z" style="fill:rgb(215,241,221);fill-rule:nonzero;"/>
            </g>
            <path id="Vector_24" d="M80.202,93.345C83.563,93.406 86.963,93.43 90.246,92.704C93.53,91.979 96.731,90.42 98.834,87.819L100.092,89.648C111.09,92.528 122.491,93.601 133.84,92.824C135.442,92.745 137.034,92.533 138.599,92.191C141.26,91.55 143.713,90.262 146.136,89.007L154.961,84.4C156.285,84.647 157.185,86.807 156.99,88.104C156.796,89.4 155.783,90.227 155.923,91.55C156.044,92.685 156.702,93.684 156.99,94.792C157.497,96.767 156.694,98.917 155.316,100.429C153.937,101.942 152.044,102.914 150.116,103.636C145.123,105.508 139.706,105.924 134.37,106.148C129.813,106.337 125.252,106.399 120.695,106.464C118.016,106.499 115.286,106.53 112.723,105.754C109.524,105.554 108.235,104.52 105.953,103.636C105.279,103.321 104.583,102.374 103.843,102.451C103.302,102.58 102.792,102.81 102.339,103.131C99.738,104.77 100.47,107.002 97.619,108.175C93.565,109.842 85.876,109.44 81.491,109.235C77.986,109.073 73.861,108.571 72.093,105.554C71.594,104.592 71.247,103.56 71.065,102.494C70.64,100.599 67.645,92.461 69.85,91.593C70.909,91.18 73.316,92.631 74.445,92.862C76.346,93.195 78.272,93.356 80.202,93.345Z" style="fill-opacity:0.06;fill-rule:nonzero;"/>
            <path id="Vector_25" d="M164.35,74.84C164.32,74.679 164.323,74.515 164.36,74.356C164.396,74.197 164.466,74.047 164.564,73.915C165.505,72.876 166.223,71.665 166.678,70.353C167.133,69.04 167.314,67.652 167.212,66.27C167.093,63.846 166.012,61.563 164.197,59.904C162.382,58.244 159.977,57.339 157.49,57.38L135.399,57.739C135.401,57.531 135.414,57.324 135.438,57.118C135.766,55.032 136.063,52.958 136.418,50.884C136.907,48.132 136.791,45.309 136.078,42.604C135.098,38.872 133.553,35.345 131.897,31.86C131.048,30.079 129.858,28.737 128.001,27.935C124.274,26.305 120.658,26.235 117.173,28.502C114.948,29.94 113.671,31.833 113.841,34.612C114.027,37.669 113.94,40.738 114.027,43.818C114.087,44.565 113.976,45.316 113.703,46.016C113.391,46.682 112.912,47.218 112.608,47.912C112.334,48.452 112.032,48.978 111.703,49.489C111.095,50.58 110.482,51.659 109.834,52.723C107.949,55.888 106.163,59.123 103.823,62.01C102.886,63.167 101.883,64.265 100.875,65.372C100.823,65.457 100.753,65.53 100.668,65.586C100.583,65.641 100.487,65.676 100.386,65.69C100.285,65.703 100.182,65.694 100.086,65.663C99.989,65.632 99.901,65.58 99.828,65.51C98.842,64.828 97.648,64.491 96.441,64.554C87.781,64.68 79.126,64.809 70.477,64.94C67.019,64.998 64.597,67.608 64.881,70.981C65.15,74.065 65.462,77.149 65.758,80.233C66.015,83.024 66.241,85.83 66.525,88.622C66.849,91.983 67.205,95.329 67.545,98.687C67.786,100.969 67.972,103.248 68.224,105.53C68.31,105.864 68.443,106.184 68.62,106.482L68.28,106.524C68.45,107.716 68.422,108.957 68.861,110.036C70.177,113.228 72.73,113.741 75.607,113.463C75.662,113.463 75.69,113.298 75.749,113.201C76.119,113.33 76.504,113.415 76.895,113.452C83.767,113.356 90.655,113.259 97.516,113.132C98.559,113.153 99.583,112.864 100.454,112.304C101.324,111.743 101.999,110.938 102.389,109.994C102.702,109.204 102.949,108.39 103.128,107.561C103.437,107.688 103.739,107.831 104.033,107.989C104.926,108.502 105.835,109.042 106.668,109.608C106.85,109.728 107.04,109.833 107.238,109.925C107.642,110.055 108.059,110.143 108.482,110.187C108.962,110.297 109.452,110.358 109.945,110.368C115.355,110.314 120.757,110.218 126.171,110.133C132.802,110.021 139.461,109.94 146.124,109.786L148.262,109.747C149.24,109.715 150.195,109.459 151.052,108.999C152.54,108.152 153.944,107.171 155.245,106.069C158.407,103.371 159.821,100.029 158.802,95.896C158.781,95.542 158.892,95.193 159.114,94.913C159.64,94.142 160.248,93.421 160.774,92.631C160.9,92.453 160.817,92.134 160.817,91.887C161.339,92.176 161.284,91.663 161.367,91.459C162.125,89.5 162.24,87.359 161.695,85.333C161.663,85.173 161.666,85.008 161.703,84.849C161.74,84.69 161.809,84.54 161.908,84.408C164.548,81.655 165.212,78.448 164.35,74.84ZM96.228,107.716C89.158,107.824 82.1,107.92 75.026,108.059C74.235,108.086 73.994,107.851 73.923,107.106C73.623,103.51 73.283,99.932 72.915,96.336C72.619,93.186 72.251,90.033 71.951,86.883C71.698,84.157 71.469,81.463 71.216,78.753C70.987,76.278 70.762,73.803 70.493,71.328C70.406,70.638 70.647,70.487 71.331,70.487C77.179,70.403 83.004,70.306 88.857,70.21C90.833,70.183 92.809,70.156 94.809,70.167C94.941,70.15 95.076,70.159 95.204,70.194C95.431,70.29 95.624,70.45 95.757,70.653C96.202,71.128 96.485,71.726 96.567,72.365C96.577,72.562 96.61,72.757 96.666,72.947C96.706,73.113 96.749,73.251 96.777,73.429C96.836,73.999 96.845,74.573 96.805,75.144L97.346,106.621C97.346,107.685 97.346,107.685 96.228,107.716ZM161.722,67.735C161.398,69.558 160.292,70.761 158.747,71.675C158.407,71.883 158.023,72.033 157.684,72.257C156.96,72.739 156.893,73.209 157.541,73.776C159.343,75.433 160.193,78.683 157.656,80.923C156.845,81.619 155.961,82.23 155.02,82.746C154.099,83.259 153.985,83.799 154.822,84.42C155.243,84.71 155.598,85.082 155.864,85.512C156.13,85.943 156.302,86.423 156.368,86.921C156.423,87.307 156.537,87.712 156.62,88.078C156.182,90.73 154.411,92.265 152.044,93.317C151.123,93.703 151.04,94.13 151.791,94.755C152.639,95.407 153.241,96.316 153.502,97.338C154.016,99.396 153.024,100.807 151.605,102.106C151.309,102.384 150.981,102.604 150.685,102.877C149.353,104.034 147.835,104.454 146.021,104.454C138.24,104.497 130.475,104.662 122.682,104.801C122.425,104.801 122.172,104.867 121.915,104.882C121.658,104.898 121.334,104.813 121.065,104.813L116.615,104.882L114.379,104.925C113.713,104.999 113.04,104.985 112.379,104.882C112.248,104.863 112.115,104.863 111.984,104.882C111.535,104.97 111.081,105.03 110.624,105.063C110.211,105.055 109.803,104.975 109.419,104.828C108.664,104.503 107.938,104.116 107.249,103.672C106.585,103.286 105.945,102.854 105.273,102.515C105.017,102.354 104.717,102.272 104.412,102.28C103.475,102.253 102.539,102.253 101.59,102.307C101.021,102.334 100.851,102.141 100.851,101.586C100.851,98.548 100.752,95.491 100.713,92.45C100.598,85.992 100.5,79.551 100.373,73.109C100.373,72.365 100.5,71.894 101.262,71.521C104.199,70.125 106.281,67.816 108.178,65.287C110.678,61.919 112.952,58.395 114.983,54.739C115.406,53.992 115.845,53.259 116.272,52.511C117.307,50.672 118.342,48.834 119.362,46.983C119.542,46.606 119.633,46.196 119.631,45.78C119.625,45.611 119.596,45.444 119.544,45.283C119.517,45.113 119.504,44.942 119.504,44.77L119.504,43.514C119.504,42.685 119.504,41.856 119.477,41.023L119.39,36.046C119.362,35.48 119.362,34.89 119.35,34.346C119.324,34.14 119.353,33.931 119.433,33.739C119.513,33.547 119.642,33.377 119.809,33.248C121.82,31.505 124.456,31.906 126.329,33.178C126.851,33.537 127.037,34.366 127.349,34.986C128.776,37.874 129.933,40.882 130.807,43.972C131.443,46.285 131.289,48.598 130.89,50.911C130.253,54.477 129.617,58.032 128.977,61.613C128.894,62.11 128.835,62.608 128.764,63.155C128.928,63.18 129.095,63.193 129.261,63.194C138.643,63.043 148.037,62.931 157.435,62.739C158.076,62.724 158.713,62.85 159.297,63.108C159.882,63.366 160.4,63.75 160.812,64.23C161.224,64.71 161.519,65.274 161.677,65.881C161.835,66.488 161.85,67.121 161.722,67.735Z" style="fill:url(#_Linear5);fill-rule:nonzero;"/>
        </g>
        <path id="Vector_26" d="M67.818,66.539L80.336,73.834L82.918,79.594L63.805,72.074L67.818,66.539Z" style="fill:rgb(234,212,208);fill-rule:nonzero;"/>
        <path id="Vector_27" d="M80.332,73.834C80.889,73.357 81.487,72.929 82.118,72.555C82.701,72.291 88.857,74.761 88.884,75.424C88.911,76.088 88.581,78.484 87.917,78.709C87.253,78.934 82.919,79.594 82.919,79.594C82.919,79.594 78.549,75.114 80.332,73.834Z" style="fill:rgb(234,212,208);fill-rule:nonzero;"/>
        <path id="Vector_28" d="M80.258,45.159C80.258,45.159 75.119,47.098 73.741,50.526C72.362,53.955 60.714,69.615 62.963,72.306C64.101,73.668 66.66,74.773 66.66,74.773L74.168,70.084L72.564,68.533L79.986,58.034C79.986,58.034 82.126,47.904 80.258,45.159Z" style="fill:rgb(0,200,83);fill-rule:nonzero;"/>
    </g>
    <defs>
        <linearGradient id="_Linear1" x1="0" y1="0" x2="1" y2="0" gradientUnits="userSpaceOnUse" gradientTransform="matrix(172.16,-6784.9,6784.9,172.16,9294.83,28453.1)"><stop offset="0" style="stop-color:rgb(1,1,1);stop-opacity:0"/><stop offset="0.95" style="stop-color:rgb(1,1,1);stop-opacity:0.44"/><stop offset="1" style="stop-color:rgb(1,1,1);stop-opacity:0.44"/></linearGradient>
        <linearGradient id="_Linear2" x1="0" y1="0" x2="1" y2="0" gradientUnits="userSpaceOnUse" gradientTransform="matrix(471.43,0,0,471.43,2955.46,3298.53)"><stop offset="0" style="stop-color:rgb(1,1,1);stop-opacity:0"/><stop offset="0.95" style="stop-color:rgb(1,1,1);stop-opacity:0.44"/><stop offset="1" style="stop-color:rgb(1,1,1);stop-opacity:0.44"/></linearGradient>
        <linearGradient id="_Linear3" x1="0" y1="0" x2="1" y2="0" gradientUnits="userSpaceOnUse" gradientTransform="matrix(528.68,0,0,528.68,4256.4,2898.17)"><stop offset="0" style="stop-color:rgb(1,1,1);stop-opacity:0"/><stop offset="0.95" style="stop-color:rgb(1,1,1);stop-opacity:0.44"/><stop offset="1" style="stop-color:rgb(1,1,1);stop-opacity:0.44"/></linearGradient>
        <linearGradient id="_Linear4" x1="0" y1="0" x2="1" y2="0" gradientUnits="userSpaceOnUse" gradientTransform="matrix(6.7774,-48.163,48.163,6.7774,74.8475,85.2985)"><stop offset="0" style="stop-color:rgb(1,1,1);stop-opacity:0"/><stop offset="0.95" style="stop-color:rgb(1,1,1);stop-opacity:1"/><stop offset="1" style="stop-color:rgb(1,1,1);stop-opacity:1"/></linearGradient>
        <linearGradient id="_Linear5" x1="0" y1="0" x2="1" y2="0" gradientUnits="userSpaceOnUse" gradientTransform="matrix(103.995,-104.79,104.79,103.995,61.4343,127.482)"><stop offset="0" style="stop-color:rgb(211,211,211);stop-opacity:1"/><stop offset="1" style="stop-color:rgb(226,226,226);stop-opacity:1"/></linearGradient>
    </defs>
</svg>
