<svg width="400" height="300" viewBox="0 0 400 300" fill="none" xmlns="http://www.w3.org/2000/svg">
<rect width="400" height="300" fill="#F5F5F5"/>
<rect width="400" height="258" fill="#CBF9D5"/>
<path d="M25.935 276.3V284H31.237V282.834H27.189V276.3H25.935ZM31.7019 281.36C31.7019 283.186 33.0879 284.143 34.5619 284.143C36.0469 284.143 37.4219 283.186 37.4219 281.36C37.4219 279.534 36.0469 278.577 34.5619 278.577C33.0879 278.577 31.7019 279.534 31.7019 281.36ZM36.2229 281.36C36.2229 282.394 35.5409 283.065 34.5619 283.065C33.5719 283.065 32.8899 282.394 32.8899 281.36C32.8899 280.326 33.5719 279.655 34.5619 279.655C35.5409 279.655 36.2229 280.326 36.2229 281.36ZM38.2332 281.36C38.2332 282.878 39.2562 284.143 40.8512 284.143C41.7752 284.143 42.3912 283.725 42.7542 283.296V283.967C42.7542 285.155 41.8632 285.529 40.8182 285.529C40.1032 285.529 39.3992 285.342 38.7942 284.99V286.068C39.4212 286.387 40.1692 286.563 40.9722 286.563C42.4792 286.563 43.9312 285.837 43.9312 283.934V278.72H42.8752V279.545C42.4682 279.039 41.8412 278.577 40.8512 278.577C39.2562 278.577 38.2332 279.842 38.2332 281.36ZM42.7432 280.711V282.075C42.4902 282.614 41.8852 283.109 41.0602 283.109C40.1142 283.109 39.4212 282.394 39.4212 281.36C39.4212 280.326 40.1142 279.611 41.0602 279.611C41.8852 279.611 42.4902 280.139 42.7432 280.711ZM45.0759 281.36C45.0759 283.186 46.4619 284.143 47.9359 284.143C49.4209 284.143 50.7959 283.186 50.7959 281.36C50.7959 279.534 49.4209 278.577 47.9359 278.577C46.4619 278.577 45.0759 279.534 45.0759 281.36ZM49.5969 281.36C49.5969 282.394 48.9149 283.065 47.9359 283.065C46.9459 283.065 46.2639 282.394 46.2639 281.36C46.2639 280.326 46.9459 279.655 47.9359 279.655C48.9149 279.655 49.5969 280.326 49.5969 281.36ZM57.2538 279.028L57.8918 276.3H56.9458L55.9998 279.028H57.2538ZM55.4498 279.028L56.0878 276.3H55.1418L54.1958 279.028H55.4498ZM59.1713 276.3V284H64.4733V282.834H60.4253V276.3H59.1713ZM66.5639 284V278.72H65.3869V284H66.5639ZM66.6959 277.004C66.6959 276.542 66.3659 276.311 65.9809 276.311C65.5959 276.311 65.2549 276.542 65.2549 277.004C65.2549 277.488 65.5959 277.708 65.9809 277.708C66.3659 277.708 66.6959 277.488 66.6959 277.004ZM69.2382 284V280.436C69.5132 280.084 69.9972 279.622 70.6352 279.622C71.2732 279.622 71.6802 280.051 71.6802 280.733V284H72.8572V280.7C72.8572 280.579 72.8462 280.458 72.8352 280.337C73.1102 280.007 73.5612 279.622 74.1442 279.622C74.7822 279.622 75.1892 280.051 75.1892 280.733V284H76.3662V280.7C76.3662 279.611 75.7612 278.577 74.3642 278.577C73.5942 278.577 72.9782 278.962 72.5162 279.424C72.2082 278.907 71.6582 278.577 70.8662 278.577C70.0082 278.577 69.3922 279.061 69.1062 279.38V278.72H68.0612V284H69.2382ZM77.4529 281.36C77.4529 283.186 78.8389 284.143 80.3129 284.143C81.7979 284.143 83.1729 283.186 83.1729 281.36C83.1729 279.534 81.7979 278.577 80.3129 278.577C78.8389 278.577 77.4529 279.534 77.4529 281.36ZM81.9739 281.36C81.9739 282.394 81.2919 283.065 80.3129 283.065C79.3229 283.065 78.6409 282.394 78.6409 281.36C78.6409 280.326 79.3229 279.655 80.3129 279.655C81.2919 279.655 81.9739 280.326 81.9739 281.36ZM84.2261 280.766V281.822H88.2301V280.766H84.2261ZM90.6658 279.545V278.72H89.6208V286.42H90.7978V283.318C91.1608 283.736 91.7768 284.143 92.7008 284.143C94.2848 284.143 95.3188 282.878 95.3188 281.36C95.3188 279.842 94.2848 278.577 92.7008 278.577C91.7108 278.577 91.0838 279.039 90.6658 279.545ZM94.1198 281.36C94.1198 282.394 93.4378 283.109 92.4808 283.109C91.6668 283.109 91.0508 282.581 90.7978 281.998V280.711C91.0508 280.139 91.6668 279.611 92.4808 279.611C93.4378 279.611 94.1198 280.326 94.1198 281.36ZM96.4856 275.97V284H97.6626V275.97H96.4856ZM102.988 278.72V282.218C102.691 282.647 102.185 283.098 101.514 283.098C100.733 283.098 100.282 282.691 100.282 281.833V278.72H99.1049V281.987C99.1049 283.241 99.8859 284.143 101.283 284.143C102.086 284.143 102.735 283.736 103.12 283.274V284H104.165V278.72H102.988ZM105.362 280.15C105.362 282.042 108.552 281.635 108.552 282.614C108.552 283.043 108.068 283.153 107.408 283.153C106.748 283.153 105.945 282.955 105.395 282.592V283.637C105.912 283.956 106.693 284.143 107.463 284.143C108.662 284.143 109.74 283.758 109.74 282.592C109.74 280.667 106.561 281.14 106.561 280.117C106.561 279.688 107.067 279.545 107.54 279.545C108.167 279.545 108.926 279.765 109.366 280.062V279.028C108.849 278.764 108.189 278.577 107.463 278.577C106.418 278.577 105.362 278.995 105.362 280.15ZM113.29 279.028L114.225 276.3H112.982L112.333 279.028H113.29ZM111.486 279.028L112.421 276.3H111.178L110.529 279.028H111.486ZM117.82 275.97V284H118.997V275.97H117.82ZM121.693 284V278.72H120.516V284H121.693ZM121.825 277.004C121.825 276.542 121.495 276.311 121.11 276.311C120.725 276.311 120.384 276.542 120.384 277.004C120.384 277.488 120.725 277.708 121.11 277.708C121.495 277.708 121.825 277.488 121.825 277.004ZM124.367 284V280.436C124.642 280.084 125.126 279.622 125.764 279.622C126.402 279.622 126.809 280.051 126.809 280.733V284H127.986V280.7C127.986 280.579 127.975 280.458 127.964 280.337C128.239 280.007 128.69 279.622 129.273 279.622C129.911 279.622 130.318 280.051 130.318 280.733V284H131.495V280.7C131.495 279.611 130.89 278.577 129.493 278.577C128.723 278.577 128.107 278.962 127.645 279.424C127.337 278.907 126.787 278.577 125.995 278.577C125.137 278.577 124.521 279.061 124.235 279.38V278.72H123.19V284H124.367ZM132.582 281.36C132.582 283.186 133.968 284.143 135.442 284.143C136.927 284.143 138.302 283.186 138.302 281.36C138.302 279.534 136.927 278.577 135.442 278.577C133.968 278.577 132.582 279.534 132.582 281.36ZM137.103 281.36C137.103 282.394 136.421 283.065 135.442 283.065C134.452 283.065 133.77 282.394 133.77 281.36C133.77 280.326 134.452 279.655 135.442 279.655C136.421 279.655 137.103 280.326 137.103 281.36ZM143.271 278.72V282.218C142.974 282.647 142.468 283.098 141.797 283.098C141.016 283.098 140.565 282.691 140.565 281.833V278.72H139.388V281.987C139.388 283.241 140.169 284.143 141.566 284.143C142.369 284.143 143.018 283.736 143.403 283.274V284H144.448V278.72H143.271ZM145.646 280.15C145.646 282.042 148.836 281.635 148.836 282.614C148.836 283.043 148.352 283.153 147.692 283.153C147.032 283.153 146.229 282.955 145.679 282.592V283.637C146.196 283.956 146.977 284.143 147.747 284.143C148.946 284.143 150.024 283.758 150.024 282.592C150.024 280.667 146.845 281.14 146.845 280.117C146.845 279.688 147.351 279.545 147.824 279.545C148.451 279.545 149.21 279.765 149.65 280.062V279.028C149.133 278.764 148.473 278.577 147.747 278.577C146.702 278.577 145.646 278.995 145.646 280.15ZM152.287 284V278.72H151.11V284H152.287ZM152.419 277.004C152.419 276.542 152.089 276.311 151.704 276.311C151.319 276.311 150.978 276.542 150.978 277.004C150.978 277.488 151.319 277.708 151.704 277.708C152.089 277.708 152.419 277.488 152.419 277.004ZM154.829 279.446V278.72H153.784V284H154.961V280.502C155.258 280.073 155.764 279.622 156.435 279.622C157.139 279.622 157.667 280.029 157.667 280.887V284H158.844V280.733C158.844 279.479 157.997 278.577 156.666 278.577C155.863 278.577 155.214 278.984 154.829 279.446ZM159.921 281.36C159.921 283.219 161.296 284.143 162.913 284.143C163.65 284.143 164.321 284.011 164.805 283.78V282.768C164.354 282.988 163.771 283.142 163.133 283.142C162.165 283.142 161.241 282.746 161.109 281.8H165.08C165.421 280.271 164.695 278.577 162.594 278.577C161.373 278.577 159.921 279.446 159.921 281.36ZM164.024 280.92H161.098C161.142 280.029 161.857 279.556 162.649 279.556C163.804 279.556 164.09 280.458 164.024 280.92ZM168.547 281.404C168.547 283.285 169.988 284.143 171.396 284.143C172.067 284.143 172.639 284.022 173.145 283.78V282.691C172.727 282.933 172.166 283.098 171.605 283.098C170.659 283.098 169.746 282.559 169.746 281.36C169.746 280.117 170.692 279.622 171.627 279.622C172.166 279.622 172.705 279.787 173.09 280.062V278.984C172.628 278.709 172.056 278.577 171.462 278.577C170.054 278.577 168.547 279.435 168.547 281.404ZM173.907 281.36C173.907 283.186 175.293 284.143 176.767 284.143C178.252 284.143 179.627 283.186 179.627 281.36C179.627 279.534 178.252 278.577 176.767 278.577C175.293 278.577 173.907 279.534 173.907 281.36ZM178.428 281.36C178.428 282.394 177.746 283.065 176.767 283.065C175.777 283.065 175.095 282.394 175.095 281.36C175.095 280.326 175.777 279.655 176.767 279.655C177.746 279.655 178.428 280.326 178.428 281.36ZM181.945 284V280.436C182.22 280.084 182.704 279.622 183.342 279.622C183.98 279.622 184.387 280.051 184.387 280.733V284H185.564V280.7C185.564 280.579 185.553 280.458 185.542 280.337C185.817 280.007 186.268 279.622 186.851 279.622C187.489 279.622 187.896 280.051 187.896 280.733V284H189.073V280.7C189.073 279.611 188.468 278.577 187.071 278.577C186.301 278.577 185.685 278.962 185.223 279.424C184.915 278.907 184.365 278.577 183.573 278.577C182.715 278.577 182.099 279.061 181.813 279.38V278.72H180.768V284H181.945ZM191.535 279.545V278.72H190.49V286.42H191.667V283.318C192.03 283.736 192.646 284.143 193.57 284.143C195.154 284.143 196.188 282.878 196.188 281.36C196.188 279.842 195.154 278.577 193.57 278.577C192.58 278.577 191.953 279.039 191.535 279.545ZM194.989 281.36C194.989 282.394 194.307 283.109 193.35 283.109C192.536 283.109 191.92 282.581 191.667 281.998V280.711C191.92 280.139 192.536 279.611 193.35 279.611C194.307 279.611 194.989 280.326 194.989 281.36ZM201.832 282.779V280.887C201.832 279.292 200.886 278.577 199.39 278.577C198.543 278.577 197.784 278.786 197.366 278.929V280.007C197.839 279.798 198.488 279.6 199.269 279.6C200.171 279.6 200.655 280.062 200.655 280.722V280.909C200.237 280.821 199.731 280.755 199.28 280.755C198.18 280.755 196.926 281.173 196.926 282.526C196.926 283.615 197.817 284.143 198.774 284.143C199.599 284.143 200.248 283.879 200.765 283.461C200.952 283.89 201.337 284.077 201.821 284.077C202.085 284.077 202.349 284.033 202.569 283.945V283.098C202.459 283.131 202.338 283.164 202.217 283.164C202.008 283.164 201.832 283.076 201.832 282.779ZM199.511 281.58C199.885 281.58 200.336 281.646 200.655 281.712V282.603C200.237 283.021 199.687 283.23 199.126 283.23C198.598 283.23 198.136 282.966 198.136 282.449C198.136 281.789 198.84 281.58 199.511 281.58ZM204.426 279.446V278.72H203.381V284H204.558V280.502C204.855 280.073 205.361 279.622 206.032 279.622C206.736 279.622 207.264 280.029 207.264 280.887V284H208.441V280.733C208.441 279.479 207.594 278.577 206.263 278.577C205.46 278.577 204.811 278.984 204.426 279.446ZM212.051 282.702L210.269 278.72H209.015L211.523 284.044L211.413 284.308C211.105 285.133 210.676 285.54 210.104 285.54C209.928 285.54 209.741 285.518 209.565 285.463V286.464C209.796 286.519 210.027 286.552 210.258 286.552C211.061 286.552 211.809 286.09 212.381 284.715L214.856 278.72H213.624L212.051 282.702Z" fill="#606060"/>
<path d="M275 133.91C226.34 141.103 177.078 154.185 127.88 170.253L127.422 164.678C177.013 150.386 226.531 139.17 275 133.91ZM195.153 128C195.834 127.837 196.422 128.038 196.915 128.604C197.407 129.171 197.658 130.125 197.669 131.464C197.683 133.193 197.403 134.578 196.833 135.616C196.286 136.649 195.606 137.262 194.788 137.458C194.066 137.631 193.46 137.449 192.969 136.909C192.478 136.369 192.22 135.406 192.2 134.02C192.174 132.269 192.434 130.888 192.981 129.877C193.552 128.836 194.277 128.21 195.153 128ZM156.567 125.985C155.558 126.267 154.724 126.795 154.068 127.567C153.435 128.308 153.143 129.1 153.19 129.942C153.238 130.784 153.533 131.373 154.073 131.709C154.613 132.022 155.395 132.033 156.422 131.746C157.474 131.451 158.304 130.939 158.912 130.208C159.52 129.453 159.801 128.593 159.753 127.628C159.714 126.833 159.401 126.296 158.813 126.019C158.226 125.742 157.477 125.731 156.567 125.985V125.985ZM143.144 123.955C141.514 124.431 139.987 125.137 138.567 126.071C137.145 126.982 135.903 128.087 134.842 129.384C133.619 130.876 132.7 132.511 132.083 134.289C131.466 136.066 131.179 138.171 131.217 140.607C131.266 144.154 131.317 147.699 131.37 151.245C131.213 151.292 131.056 151.34 130.899 151.388C129.016 151.96 127.539 152.817 126.47 153.954C125.4 155.067 124.914 156.209 125.012 157.378C125.092 158.332 125.568 158.993 126.435 159.362C127.276 159.715 128.367 159.685 129.71 159.275C132.156 158.528 133.905 156.864 134.966 154.269C136.27 154.268 137.629 154.364 139.042 154.556C140.601 154.729 141.916 154.816 142.994 154.818C144.071 154.82 145.232 154.639 146.48 154.277C148.255 153.761 149.747 153.002 150.957 151.996C151.674 151.407 152.394 150.634 153.118 149.715C153.273 150.019 153.449 150.292 153.649 150.531C154.433 151.434 155.603 151.664 157.163 151.227C158.676 150.803 160.233 149.567 161.842 147.533C161.93 147.858 162.026 148.146 162.136 148.379C162.566 149.238 163.236 149.542 164.148 149.293C164.891 149.09 165.423 148.751 165.742 148.273C166.084 147.765 166.362 146.907 166.577 145.7C166.834 144.312 167.187 142.872 167.638 141.382C168.112 139.886 168.61 138.629 169.133 137.609C169.656 136.59 170.101 136.031 170.465 135.934C170.732 135.863 170.874 136.021 170.889 136.408C170.907 136.892 170.849 137.933 170.715 139.532C170.541 141.337 170.472 142.699 170.508 143.617C170.551 144.705 170.78 145.585 171.194 146.256C171.631 146.897 172.244 147.112 173.036 146.903C173.803 146.7 174.348 146.363 174.671 145.887C175.017 145.406 175.303 144.549 175.528 143.317C175.839 141.746 176.263 140.219 176.8 138.736C177.337 137.253 177.886 136.036 178.444 135.087C179.001 134.113 179.439 133.586 179.754 133.505C180.021 133.436 180.161 133.596 180.172 133.984C180.189 134.566 180.061 135.66 179.79 137.269C179.502 139.1 179.368 140.356 179.388 141.034C179.428 142.391 179.772 143.353 180.416 143.92C181.06 144.463 181.993 144.578 183.216 144.268C184.726 143.885 186.058 143.137 187.218 142.019C187.874 141.395 188.502 140.7 189.107 139.947C189.565 140.526 190.121 140.992 190.791 141.32C191.811 141.779 193.025 141.836 194.439 141.495C195.877 141.149 197.177 140.438 198.346 139.356C199.539 138.245 200.482 136.891 201.175 135.29C201.867 133.666 202.214 131.926 202.208 130.073C202.205 128.731 201.947 127.535 201.432 126.484C200.916 125.432 200.143 124.672 199.113 124.206C198.082 123.716 196.844 123.643 195.402 123.987C193.91 124.344 192.571 125.082 191.388 126.2C190.204 127.294 189.273 128.659 188.595 130.291C187.941 131.892 187.635 133.615 187.671 135.462C187.681 135.951 187.737 136.413 187.814 136.862C187.327 137.533 186.889 138.106 186.528 138.528C185.89 139.273 185.331 139.707 184.85 139.828C184.151 140.004 183.79 139.606 183.766 138.635C183.75 137.957 183.945 136.502 184.355 134.276C184.83 131.665 185.059 129.89 185.037 128.942C185.001 127.365 184.19 126.773 182.6 127.176C181.305 127.504 179.93 128.538 178.484 130.278C177.037 132.019 175.755 134.538 174.647 137.833C174.705 137.379 174.816 136.69 174.981 135.768C175.373 133.613 175.558 132.15 175.532 131.374C175.506 130.575 175.302 130.03 174.923 129.738C174.568 129.44 173.963 129.403 173.108 129.628C172.253 129.854 171.348 130.422 170.397 131.335C169.47 132.217 168.57 133.436 167.7 134.989C166.854 136.536 166.147 138.34 165.577 140.4C165.627 139.312 165.709 138.398 165.824 137.658C165.938 136.895 166.095 135.996 166.297 134.964C166.604 133.512 166.749 132.595 166.732 132.208C166.718 131.87 166.611 131.667 166.411 131.599C166.21 131.531 165.865 131.563 165.377 131.696C164.473 131.941 163.774 132.302 163.277 132.78C162.803 133.228 162.473 133.831 162.287 134.591C161.575 137.438 161.268 140.313 161.348 143.216C160.705 144.182 160.128 145.019 159.688 145.574C159.067 146.357 158.541 146.81 158.107 146.931C157.65 147.059 157.315 146.957 157.101 146.625C156.888 146.294 156.762 145.767 156.724 145.045C156.674 144.107 156.867 142.228 157.31 139.417C157.656 137.094 157.816 135.634 157.784 135.031C157.742 134.212 157.098 133.975 155.853 134.325C155.048 134.551 154.47 134.862 154.12 135.254C153.77 135.646 153.507 136.257 153.332 137.089C152.976 138.682 152.703 140.373 152.51 142.164C152.375 143.559 152.317 144.733 152.329 145.702C151.742 146.44 151.126 147.075 150.474 147.586C149.512 148.326 148.332 148.898 146.934 149.303C146.38 149.464 145.737 149.577 145.004 149.644C144.27 149.711 143.222 149.774 141.846 149.836C139.493 149.942 137.529 150.098 135.966 150.298C136.097 149.402 136.182 148.362 136.219 147.176C136.298 144.375 136.38 141.573 136.464 138.771C136.568 135.73 137.159 133.353 138.241 131.636C139.321 129.897 140.946 128.706 143.111 128.073C144.341 127.714 145.271 127.75 145.899 128.179C146.551 128.578 146.907 129.282 146.97 130.291C147.002 130.819 146.966 131.441 146.861 132.156C146.799 132.761 146.775 133.172 146.788 133.388C146.826 133.989 147.05 134.401 147.461 134.625C147.872 134.824 148.419 134.825 149.103 134.629C150.056 134.355 150.775 133.697 151.261 132.653C151.746 131.586 151.947 130.319 151.863 128.852C151.739 126.687 150.927 125.132 149.415 124.195C147.905 123.259 145.811 123.176 143.144 123.955C143.144 123.955 143.144 123.955 143.144 123.955L143.144 123.955ZM222.883 103.904C225.148 103.438 226.804 103.619 227.842 104.436C228.906 105.224 229.41 106.43 229.36 108.051C229.218 112.646 226.614 115.744 221.594 117.419C222.048 114.959 222.506 112.498 222.968 110.036C223.023 109.781 223.054 109.457 223.063 109.065C223.078 108.403 222.904 107.963 222.539 107.746C222.199 107.499 221.619 107.46 220.801 107.63C220.083 107.78 219.448 108.096 218.897 108.578C218.371 109.031 218.026 109.69 217.864 110.553C217.221 113.877 216.726 116.55 216.382 118.517C216.064 118.561 215.613 118.598 215.027 118.626C214.905 118.628 214.721 118.655 214.476 118.708C213.937 118.824 213.507 119.077 213.185 119.464C212.888 119.846 212.738 120.306 212.733 120.844C212.728 121.357 212.832 121.762 213.048 122.056C213.265 122.326 213.738 122.442 214.467 122.406C214.352 122.408 214.754 122.38 215.708 122.322C215.274 124.721 214.844 127.119 214.417 129.517C214.083 131.273 213.615 132.215 213.014 132.347C212.58 132.441 212.126 132.223 211.649 131.694C211.197 131.135 210.818 130.303 210.512 129.2C210.231 128.092 210.095 126.779 210.105 125.264C210.13 121.647 210.65 118.326 211.683 115.292C212.741 112.23 214.223 109.698 216.132 107.703C218.064 105.703 220.32 104.433 222.883 103.904C222.883 103.904 222.883 103.904 222.883 103.904V103.904ZM243.016 98.9155C243.715 98.7896 244.018 99.6633 243.924 101.536C243.806 103.926 243.152 106.666 241.981 109.76C240.811 112.828 239.297 115.961 237.451 119.161C237.616 116.373 238.031 113.414 238.703 110.288C239.375 107.16 240.117 104.509 240.931 102.333C241.744 100.158 242.443 99.0189 243.016 98.9155ZM224.288 99.5903C220.96 100.27 217.889 101.785 215.101 104.118C212.337 106.422 210.131 109.496 208.486 113.329C206.865 117.134 206.066 121.509 206.057 126.466C206.052 129.101 206.423 131.238 207.165 132.876C207.906 134.514 208.885 135.636 210.101 136.244C211.342 136.847 212.69 136.99 214.15 136.673C216.803 136.098 218.461 134.057 219.125 130.525C219.696 127.465 220.274 124.404 220.857 121.342C223.686 120.558 226.136 119.416 228.22 117.903C230.302 116.391 231.917 114.662 233.06 112.709C234.202 110.756 234.818 108.735 234.897 106.645C234.964 104.9 234.603 103.419 233.807 102.205C233.036 100.962 231.839 100.095 230.216 99.6098C228.617 99.1193 226.639 99.1097 224.288 99.5903V99.5903ZM244.02 95.1097C241.889 95.4914 239.982 97.2089 238.32 100.252C236.683 103.292 235.403 106.804 234.472 110.79C233.565 114.769 233.067 118.261 232.959 121.257C232.846 124.377 233.263 126.825 234.196 128.599C235.154 130.369 236.679 131.055 238.782 130.668C240.311 130.386 241.693 129.722 242.931 128.671C243.515 128.183 244.079 127.645 244.629 127.065C244.754 127.416 244.91 127.74 245.105 128.031C245.745 128.92 246.601 129.27 247.675 129.086C248.606 128.926 249.502 128.335 250.369 127.31C251.237 126.26 251.93 124.863 252.445 123.116C252.34 124.771 252.522 126.012 252.989 126.839C253.48 127.663 254.297 127.981 255.441 127.798C256.944 127.557 258.308 126.929 259.541 125.907C260.797 124.882 261.99 123.637 263.125 122.171C263.244 122.024 263.349 121.865 263.445 121.697C263.601 121.497 263.766 121.302 263.917 121.099C264.739 120.022 265.583 118.7 266.453 117.129C266.758 117.477 267.08 117.896 267.419 118.386C267.76 118.851 268.026 119.352 268.217 119.888C268.433 120.421 268.524 121.008 268.492 121.649C268.172 121.658 267.852 121.667 267.532 121.676C267.131 121.66 266.775 121.674 266.463 121.719C265.576 121.847 264.884 122.179 264.391 122.717C263.898 123.255 263.628 123.846 263.576 124.489C263.517 125.232 263.786 125.854 264.381 126.354C264.999 126.85 265.925 127.009 267.161 126.833C268.231 126.681 269.207 126.263 270.091 125.578C270.975 124.893 271.687 124.062 272.225 123.083C272.79 122.075 273.123 121.05 273.22 120.008C273.302 119.139 273.171 118.373 272.829 117.708C272.513 117.016 272.018 116.2 271.339 115.265C270.868 114.668 270.518 114.166 270.291 113.757C270.088 113.344 270.003 112.952 270.036 112.58C270.09 111.961 270.374 111.173 270.892 110.219C271.091 109.873 271.254 109.532 271.38 109.196C271.507 108.86 271.578 108.618 271.591 108.469C271.615 108.196 271.498 108.016 271.24 107.929C270.983 107.843 270.511 107.848 269.826 107.944C268.359 108.151 267.347 108.837 266.794 109.994C265.918 111.813 265.218 113.244 264.676 114.307C264.16 115.362 263.656 116.281 263.165 117.064C262.476 118.141 261.463 119.541 260.213 121.187C259.839 121.616 259.494 121.996 259.202 122.291C258.51 122.985 257.926 123.371 257.446 123.446C257.135 123.495 256.891 123.412 256.716 123.195C256.543 122.954 256.473 122.597 256.505 122.127C256.556 121.39 257.028 119.376 257.929 116.108C258.731 113.24 259.157 111.505 259.202 110.883C259.229 110.512 259.137 110.282 258.926 110.193C258.717 110.079 258.33 110.066 257.768 110.155C256.961 110.283 256.337 110.543 255.9 110.931C255.488 111.315 255.16 111.894 254.916 112.667C254.186 114.961 253.46 116.913 252.736 118.523C252.035 120.129 251.387 121.349 250.788 122.182C250.213 123.012 249.747 123.457 249.386 123.518C249.121 123.563 248.934 123.497 248.826 123.321C248.718 123.119 248.679 122.76 248.709 122.241C248.758 121.38 249.099 119.607 249.737 116.936C249.926 116.171 250.17 115.311 250.468 114.357C250.804 113.176 250.979 112.488 250.991 112.29C251.012 111.945 250.917 111.703 250.707 111.568C250.522 111.428 250.16 111.404 249.622 111.495C248.668 111.658 247.96 111.939 247.503 112.335C247.045 112.732 246.674 113.322 246.39 114.104C245.736 115.928 245.248 117.638 244.924 119.234C244.691 120.371 244.519 121.584 244.404 122.867C243.602 123.857 242.918 124.623 242.356 125.148C241.583 125.849 240.705 126.288 239.719 126.469C239.094 126.583 238.599 126.467 238.232 126.12C237.866 125.749 237.621 125.073 237.494 124.096C240.382 119.799 242.746 115.578 244.562 111.422C246.378 107.264 247.386 103.724 247.546 100.787C247.658 98.7397 247.394 97.2352 246.751 96.2728C246.135 95.2819 245.223 94.8941 244.02 95.1097C244.02 95.1097 244.02 95.1097 244.02 95.1097L244.02 95.1097Z" fill="#00C853"/>
</svg>
