<svg width="400" height="300" viewBox="0 0 400 300" fill="none" xmlns="http://www.w3.org/2000/svg">
<rect width="400" height="300" fill="#F5F5F5"/>
<rect width="400" height="258" fill="#CBF9D5"/>
<path d="M175.667 121.618C176.908 121.618 178.025 121.896 179.018 122.451C180.022 123.007 180.808 123.775 181.375 124.756C181.943 125.725 182.226 126.818 182.226 128.035C182.226 129.252 181.943 130.351 181.375 131.332C180.808 132.301 180.022 133.064 179.018 133.619C178.025 134.174 176.908 134.452 175.667 134.452C174.557 134.452 173.54 134.233 172.618 133.796C171.697 133.347 170.934 132.727 170.332 131.935C169.741 131.131 169.363 130.216 169.197 129.187H167.566V134.239H164.713V121.831H167.566V126.706H169.233C169.422 125.713 169.812 124.833 170.403 124.065C171.005 123.285 171.762 122.682 172.672 122.256C173.582 121.831 174.58 121.618 175.667 121.618ZM175.667 132.006C176.353 132.006 176.973 131.84 177.529 131.51C178.084 131.179 178.521 130.712 178.84 130.109C179.159 129.506 179.319 128.815 179.319 128.035C179.319 127.255 179.159 126.564 178.84 125.961C178.521 125.359 178.084 124.892 177.529 124.561C176.973 124.23 176.353 124.065 175.667 124.065C174.982 124.065 174.362 124.23 173.806 124.561C173.251 124.892 172.813 125.359 172.494 125.961C172.175 126.564 172.016 127.255 172.016 128.035C172.016 128.815 172.175 129.506 172.494 130.109C172.813 130.712 173.251 131.179 173.806 131.51C174.362 131.84 174.982 132.006 175.667 132.006Z" fill="#00C853"/>
<path d="M193.186 124.171H187.283L187.301 134.239H184.447V121.831H193.204L193.186 124.171Z" fill="#00C853"/>
<path d="M205.859 134.452C204.595 134.452 203.449 134.18 202.42 133.637C201.404 133.081 200.6 132.319 200.01 131.35C199.431 130.369 199.141 129.264 199.141 128.035C199.141 126.806 199.431 125.707 200.01 124.738C200.6 123.757 201.404 122.995 202.42 122.451C203.449 121.896 204.601 121.618 205.877 121.618C206.952 121.618 207.921 121.807 208.784 122.186C209.659 122.564 210.391 123.107 210.982 123.816L209.139 125.518C208.3 124.549 207.26 124.065 206.019 124.065C205.251 124.065 204.565 124.236 203.963 124.579C203.36 124.909 202.887 125.376 202.544 125.979C202.214 126.582 202.048 127.267 202.048 128.035C202.048 128.803 202.214 129.489 202.544 130.091C202.887 130.694 203.36 131.167 203.963 131.51C204.565 131.84 205.251 132.006 206.019 132.006C207.26 132.006 208.3 131.515 209.139 130.535L210.982 132.236C210.391 132.957 209.659 133.507 208.784 133.885C207.91 134.263 206.935 134.452 205.859 134.452Z" fill="#00C853"/>
<path d="M220.394 126.972H217.167V134.239H214.42V126.972H211.194V124.703H220.394V126.972Z" fill="#00C853"/>
<path d="M227.487 124.561C228.373 124.561 229.177 124.768 229.898 125.181C230.63 125.583 231.204 126.156 231.617 126.901C232.031 127.633 232.238 128.49 232.238 129.471C232.238 130.452 232.031 131.315 231.617 132.059C231.204 132.792 230.63 133.365 229.898 133.778C229.177 134.18 228.373 134.381 227.487 134.381C226.27 134.381 225.313 133.997 224.615 133.229V137.678H221.85V124.703H224.491V125.802C225.177 124.974 226.175 124.561 227.487 124.561ZM227.008 132.112C227.717 132.112 228.296 131.876 228.746 131.403C229.206 130.919 229.437 130.275 229.437 129.471C229.437 128.667 229.206 128.029 228.746 127.557C228.296 127.072 227.717 126.83 227.008 126.83C226.299 126.83 225.714 127.072 225.253 127.557C224.804 128.029 224.58 128.667 224.58 129.471C224.58 130.275 224.804 130.919 225.253 131.403C225.714 131.876 226.299 132.112 227.008 132.112Z" fill="#00C853"/>
<path d="M238.625 134.381C237.621 134.381 236.717 134.174 235.913 133.761C235.122 133.335 234.501 132.75 234.052 132.006C233.603 131.261 233.378 130.416 233.378 129.471C233.378 128.526 233.603 127.681 234.052 126.936C234.501 126.192 235.122 125.613 235.913 125.199C236.717 124.774 237.621 124.561 238.625 124.561C239.63 124.561 240.528 124.774 241.32 125.199C242.112 125.613 242.732 126.192 243.181 126.936C243.63 127.681 243.855 128.526 243.855 129.471C243.855 130.416 243.63 131.261 243.181 132.006C242.732 132.75 242.112 133.335 241.32 133.761C240.528 134.174 239.63 134.381 238.625 134.381ZM238.625 132.112C239.334 132.112 239.913 131.876 240.363 131.403C240.823 130.919 241.054 130.275 241.054 129.471C241.054 128.667 240.823 128.029 240.363 127.557C239.913 127.072 239.334 126.83 238.625 126.83C237.916 126.83 237.331 127.072 236.87 127.557C236.41 128.029 236.179 128.667 236.179 129.471C236.179 130.275 236.41 130.919 236.87 131.403C237.331 131.876 237.916 132.112 238.625 132.112Z" fill="#00C853"/>
<path d="M245.757 124.703H248.504V130.375L253.148 124.703H255.683V134.239H252.936V128.567L248.309 134.239H245.757V124.703ZM250.543 123.675C248.463 123.675 247.417 122.759 247.405 120.927H249.213C249.225 121.341 249.337 121.666 249.55 121.902C249.775 122.126 250.099 122.239 250.525 122.239C250.95 122.239 251.275 122.126 251.5 121.902C251.736 121.666 251.854 121.341 251.854 120.927H253.698C253.686 122.759 252.634 123.675 250.543 123.675Z" fill="#00C853"/>
<path d="M276.39 131.9V136.81H273.731V134.239H264.974V136.81H262.315L262.333 131.9H262.829C263.574 131.876 264.1 131.332 264.407 130.269C264.714 129.205 264.903 127.687 264.974 125.713L265.116 121.831H274.653V131.9H276.39ZM267.509 125.979C267.45 127.456 267.326 128.697 267.137 129.701C266.948 130.694 266.658 131.427 266.268 131.9H271.817V124.171H267.562L267.509 125.979Z" fill="#00C853"/>
<path d="M289.615 121.831V134.239H286.761V124.171H281.16V134.239H278.306V121.831H289.615Z" fill="#00C853"/>
<path d="M297.512 129.241H295.527V134.239H292.673V121.831H295.527V126.848H297.583L300.845 121.831H303.876L299.817 127.822L304 134.239H300.738L297.512 129.241Z" fill="#00C853"/>
<path d="M96.2385 138.641L101.678 141.782L101.678 135.5L96.2385 138.641ZM96.239 126.079L101.678 129.22L101.678 122.939L96.239 126.079ZM117.996 157.484L123.436 154.343L117.996 151.203L117.996 157.484ZM123.436 154.343L128.876 151.203L128.875 144.922L123.436 141.781L117.997 138.641L117.996 144.922L123.436 148.063L123.436 154.343ZM123.436 141.781L128.875 138.641L128.875 132.36L123.436 129.22L123.436 122.939L101.678 110.377L96.2386 113.517L117.996 126.079L117.997 132.36L123.436 135.501L123.436 141.781Z" fill="#00C853"/>
<path d="M112.557 116.658L117.996 119.798L117.997 113.518L112.557 116.658ZM134.315 148.063L139.754 144.922L134.315 141.782L134.315 148.063ZM139.754 144.922L145.194 141.782L145.194 135.501L139.754 132.36L134.315 129.22L134.315 135.501L139.754 138.641L139.754 144.922ZM139.754 132.36L145.194 129.22L145.194 122.939L139.754 119.799L139.754 113.517L117.997 100.955L112.557 104.096L134.315 116.658L134.315 122.939L139.754 126.08L139.754 132.36Z" fill="#00C853"/>
<path d="M25.935 276.3V284H31.237V282.834H27.189V276.3H25.935ZM31.7019 281.36C31.7019 283.186 33.0879 284.143 34.5619 284.143C36.0469 284.143 37.4219 283.186 37.4219 281.36C37.4219 279.534 36.0469 278.577 34.5619 278.577C33.0879 278.577 31.7019 279.534 31.7019 281.36ZM36.2229 281.36C36.2229 282.394 35.5409 283.065 34.5619 283.065C33.5719 283.065 32.8899 282.394 32.8899 281.36C32.8899 280.326 33.5719 279.655 34.5619 279.655C35.5409 279.655 36.2229 280.326 36.2229 281.36ZM38.2332 281.36C38.2332 282.878 39.2562 284.143 40.8512 284.143C41.7752 284.143 42.3912 283.725 42.7542 283.296V283.967C42.7542 285.155 41.8632 285.529 40.8182 285.529C40.1032 285.529 39.3992 285.342 38.7942 284.99V286.068C39.4212 286.387 40.1692 286.563 40.9722 286.563C42.4792 286.563 43.9312 285.837 43.9312 283.934V278.72H42.8752V279.545C42.4682 279.039 41.8412 278.577 40.8512 278.577C39.2562 278.577 38.2332 279.842 38.2332 281.36ZM42.7432 280.711V282.075C42.4902 282.614 41.8852 283.109 41.0602 283.109C40.1142 283.109 39.4212 282.394 39.4212 281.36C39.4212 280.326 40.1142 279.611 41.0602 279.611C41.8852 279.611 42.4902 280.139 42.7432 280.711ZM45.0759 281.36C45.0759 283.186 46.4619 284.143 47.9359 284.143C49.4209 284.143 50.7959 283.186 50.7959 281.36C50.7959 279.534 49.4209 278.577 47.9359 278.577C46.4619 278.577 45.0759 279.534 45.0759 281.36ZM49.5969 281.36C49.5969 282.394 48.9149 283.065 47.9359 283.065C46.9459 283.065 46.2639 282.394 46.2639 281.36C46.2639 280.326 46.9459 279.655 47.9359 279.655C48.9149 279.655 49.5969 280.326 49.5969 281.36ZM57.2538 279.028L57.8918 276.3H56.9458L55.9998 279.028H57.2538ZM55.4498 279.028L56.0878 276.3H55.1418L54.1958 279.028H55.4498ZM69.8523 280.15C69.8523 278.115 68.5213 276.157 65.8153 276.157C63.3623 276.157 62.0423 277.774 61.8223 279.567H60.4253V276.3H59.1713V284H60.4253V280.733H61.8223C62.0423 282.515 63.3623 284.143 65.8153 284.143C68.5213 284.143 69.8523 282.185 69.8523 280.15ZM63.0323 280.15C63.0323 278.676 63.9453 277.334 65.8043 277.334C67.6743 277.334 68.5763 278.676 68.5763 280.15C68.5763 281.624 67.6743 282.966 65.8043 282.966C63.9453 282.966 63.0323 281.624 63.0323 280.15ZM72.4781 284V277.455H76.4381V276.3H71.2241V284H72.4781ZM79.6456 280.216C79.6346 282.845 81.7466 284.143 83.7376 284.143C84.5516 284.143 85.3216 283.956 85.9706 283.637V282.394C85.4646 282.779 84.7496 282.988 83.9576 282.988C82.4836 282.988 80.9216 282.108 80.9216 280.216C80.9326 278.181 82.4616 277.312 83.9356 277.312C84.6616 277.312 85.3766 277.51 85.9156 277.884V276.663C85.2556 276.333 84.4966 276.157 83.7266 276.157C81.7026 276.157 79.6456 277.477 79.6456 280.216ZM89.1841 284V279.754H90.9991V278.72H86.1811V279.754H88.0071V284H89.1841ZM92.9646 279.545V278.72H91.9196V286.42H93.0966V283.318C93.4596 283.736 94.0756 284.143 94.9996 284.143C96.5836 284.143 97.6176 282.878 97.6176 281.36C97.6176 279.842 96.5836 278.577 94.9996 278.577C94.0096 278.577 93.3826 279.039 92.9646 279.545ZM96.4186 281.36C96.4186 282.394 95.7366 283.109 94.7796 283.109C93.9656 283.109 93.3496 282.581 93.0966 281.998V280.711C93.3496 280.139 93.9656 279.611 94.7796 279.611C95.7366 279.611 96.4186 280.326 96.4186 281.36ZM98.4324 281.36C98.4324 283.186 99.8184 284.143 101.292 284.143C102.777 284.143 104.152 283.186 104.152 281.36C104.152 279.534 102.777 278.577 101.292 278.577C99.8184 278.577 98.4324 279.534 98.4324 281.36ZM102.953 281.36C102.953 282.394 102.271 283.065 101.292 283.065C100.302 283.065 99.6204 282.394 99.6204 281.36C99.6204 280.326 100.302 279.655 101.292 279.655C102.271 279.655 102.953 280.326 102.953 281.36ZM109.408 277.532V276.575C108.847 276.927 108.352 277.037 107.802 277.037C107.252 277.037 106.757 276.927 106.196 276.575V277.532C106.68 277.862 107.208 277.983 107.802 277.983C108.396 277.983 108.924 277.862 109.408 277.532ZM106.306 284L109.133 280.546V284H110.31V278.72H109.298L106.471 282.174V278.72H105.294V284H106.306ZM115.031 285.749V284H120.839V285.749H121.983V282.856H121.004V276.3H116.043C116.043 278.566 115.79 281.074 114.811 282.856H113.887V285.749H115.031ZM117.275 277.455H119.75V282.856H116.175C116.901 281.459 117.154 279.369 117.275 277.455ZM124.513 284V277.455H128.473V284H129.727V276.3H123.259V284H124.513ZM132.849 284V280.667H134.389L136.71 284H138.129L135.379 280.051L137.931 276.3H136.512L134.367 279.512H132.849V276.3H131.595V284H132.849ZM141.252 279.028L142.187 276.3H140.944L140.295 279.028H141.252ZM139.448 279.028L140.383 276.3H139.14L138.491 279.028H139.448Z" fill="#606060"/>
</svg>
