<svg width="400" height="300" viewBox="0 0 400 300" fill="none" xmlns="http://www.w3.org/2000/svg">
<rect width="400" height="300" fill="#F5F5F5"/>
<rect width="400" height="258" fill="#CBF9D5"/>
<path d="M25.935 276.3V284H31.237V282.834H27.189V276.3H25.935ZM31.7019 281.36C31.7019 283.186 33.0879 284.143 34.5619 284.143C36.0469 284.143 37.4219 283.186 37.4219 281.36C37.4219 279.534 36.0469 278.577 34.5619 278.577C33.0879 278.577 31.7019 279.534 31.7019 281.36ZM36.2229 281.36C36.2229 282.394 35.5409 283.065 34.5619 283.065C33.5719 283.065 32.8899 282.394 32.8899 281.36C32.8899 280.326 33.5719 279.655 34.5619 279.655C35.5409 279.655 36.2229 280.326 36.2229 281.36ZM38.2332 281.36C38.2332 282.878 39.2562 284.143 40.8512 284.143C41.7752 284.143 42.3912 283.725 42.7542 283.296V283.967C42.7542 285.155 41.8632 285.529 40.8182 285.529C40.1032 285.529 39.3992 285.342 38.7942 284.99V286.068C39.4212 286.387 40.1692 286.563 40.9722 286.563C42.4792 286.563 43.9312 285.837 43.9312 283.934V278.72H42.8752V279.545C42.4682 279.039 41.8412 278.577 40.8512 278.577C39.2562 278.577 38.2332 279.842 38.2332 281.36ZM42.7432 280.711V282.075C42.4902 282.614 41.8852 283.109 41.0602 283.109C40.1142 283.109 39.4212 282.394 39.4212 281.36C39.4212 280.326 40.1142 279.611 41.0602 279.611C41.8852 279.611 42.4902 280.139 42.7432 280.711ZM45.0759 281.36C45.0759 283.186 46.4619 284.143 47.9359 284.143C49.4209 284.143 50.7959 283.186 50.7959 281.36C50.7959 279.534 49.4209 278.577 47.9359 278.577C46.4619 278.577 45.0759 279.534 45.0759 281.36ZM49.5969 281.36C49.5969 282.394 48.9149 283.065 47.9359 283.065C46.9459 283.065 46.2639 282.394 46.2639 281.36C46.2639 280.326 46.9459 279.655 47.9359 279.655C48.9149 279.655 49.5969 280.326 49.5969 281.36ZM61.7198 276.3L58.7938 280.711L55.8678 276.3H54.7348V284H55.9888V278.599L58.4198 282.262H59.1678L61.5988 278.61V284H62.8528V276.3H61.7198ZM65.726 284V278.72H64.549V284H65.726ZM65.858 277.004C65.858 276.542 65.528 276.311 65.143 276.311C64.758 276.311 64.417 276.542 64.417 277.004C64.417 277.488 64.758 277.708 65.143 277.708C65.528 277.708 65.858 277.488 65.858 277.004ZM67.2233 276.3V284H68.4003V280.502C68.6973 280.073 69.2033 279.622 69.8743 279.622C70.5783 279.622 71.1063 280.029 71.1063 280.887V284H72.2833V280.733C72.2833 279.479 71.4363 278.577 70.1053 278.577C69.3903 278.577 68.7853 278.907 68.4003 279.303V276.3H67.2233ZM74.8891 284V278.72H73.7121V284H74.8891ZM75.0211 277.004C75.0211 276.542 74.6911 276.311 74.3061 276.311C73.9211 276.311 73.5801 276.542 73.5801 277.004C73.5801 277.488 73.9211 277.708 74.3061 277.708C74.6911 277.708 75.0211 277.488 75.0211 277.004ZM76.0564 281.36C76.0564 283.219 77.4314 284.143 79.0484 284.143C79.7854 284.143 80.4564 284.011 80.9404 283.78V282.768C80.4894 282.988 79.9064 283.142 79.2684 283.142C78.3004 283.142 77.3764 282.746 77.2444 281.8H81.2154C81.5564 280.271 80.8304 278.577 78.7294 278.577C77.5084 278.577 76.0564 279.446 76.0564 281.36ZM80.1594 280.92H77.2334C77.2774 280.029 77.9924 279.556 78.7844 279.556C79.9394 279.556 80.2254 280.458 80.1594 280.92ZM83.4578 279.446V278.72H82.4128V284H83.5898V280.502C83.8868 280.073 84.3928 279.622 85.0638 279.622C85.7678 279.622 86.2958 280.029 86.2958 280.887V284H87.4728V280.733C87.4728 279.479 86.6258 278.577 85.2948 278.577C84.4918 278.577 83.8428 278.984 83.4578 279.446ZM93.9946 284L91.8716 281.338L93.7856 278.72H92.4436L90.9256 280.81H90.0566V276.3H88.8796V284H90.0566V281.811H90.9036L92.6416 284H93.9946ZM94.157 281.36C94.157 283.186 95.543 284.143 97.017 284.143C98.502 284.143 99.877 283.186 99.877 281.36C99.877 279.534 98.502 278.577 97.017 278.577C95.543 278.577 94.157 279.534 94.157 281.36ZM98.678 281.36C98.678 282.394 97.996 283.065 97.017 283.065C96.027 283.065 95.345 282.394 95.345 281.36C95.345 280.326 96.027 279.655 97.017 279.655C97.996 279.655 98.678 280.326 98.678 281.36ZM105.257 284V279.754H107.061V278.72H105.257V278.181C105.257 277.356 105.763 277.191 106.335 277.191C106.709 277.191 107.094 277.29 107.358 277.422V276.388C106.995 276.256 106.533 276.157 106.049 276.157C105.081 276.157 104.08 276.608 104.08 278.137V278.72H103.123V279.754H104.08V284H105.257ZM107.467 281.36C107.467 283.186 108.853 284.143 110.327 284.143C111.812 284.143 113.187 283.186 113.187 281.36C113.187 279.534 111.812 278.577 110.327 278.577C108.853 278.577 107.467 279.534 107.467 281.36ZM111.988 281.36C111.988 282.394 111.306 283.065 110.327 283.065C109.337 283.065 108.655 282.394 108.655 281.36C108.655 280.326 109.337 279.655 110.327 279.655C111.306 279.655 111.988 280.326 111.988 281.36ZM115.373 279.589V278.72H114.328V284H115.505V280.799C115.824 280.051 116.649 279.633 117.595 279.765V278.61C116.638 278.522 115.78 278.94 115.373 279.589ZM121.893 279.545V278.72H120.848V286.42H122.025V283.318C122.388 283.736 123.004 284.143 123.928 284.143C125.512 284.143 126.546 282.878 126.546 281.36C126.546 279.842 125.512 278.577 123.928 278.577C122.938 278.577 122.311 279.039 121.893 279.545ZM125.347 281.36C125.347 282.394 124.665 283.109 123.708 283.109C122.894 283.109 122.278 282.581 122.025 281.998V280.711C122.278 280.139 122.894 279.611 123.708 279.611C124.665 279.611 125.347 280.326 125.347 281.36ZM127.361 281.36C127.361 283.219 128.736 284.143 130.353 284.143C131.09 284.143 131.761 284.011 132.245 283.78V282.768C131.794 282.988 131.211 283.142 130.573 283.142C129.605 283.142 128.681 282.746 128.549 281.8H132.52C132.861 280.271 132.135 278.577 130.034 278.577C128.813 278.577 127.361 279.446 127.361 281.36ZM131.464 280.92H128.538C128.582 280.029 129.297 279.556 130.089 279.556C131.244 279.556 131.53 280.458 131.464 280.92ZM134.762 279.589V278.72H133.717V284H134.894V280.799C135.213 280.051 136.038 279.633 136.984 279.765V278.61C136.027 278.522 135.169 278.94 134.762 279.589ZM137.6 280.15C137.6 282.042 140.79 281.635 140.79 282.614C140.79 283.043 140.306 283.153 139.646 283.153C138.986 283.153 138.183 282.955 137.633 282.592V283.637C138.15 283.956 138.931 284.143 139.701 284.143C140.9 284.143 141.978 283.758 141.978 282.592C141.978 280.667 138.799 281.14 138.799 280.117C138.799 279.688 139.305 279.545 139.778 279.545C140.405 279.545 141.164 279.765 141.604 280.062V279.028C141.087 278.764 140.427 278.577 139.701 278.577C138.656 278.577 137.6 278.995 137.6 280.15ZM142.712 281.36C142.712 283.186 144.098 284.143 145.572 284.143C147.057 284.143 148.432 283.186 148.432 281.36C148.432 279.534 147.057 278.577 145.572 278.577C144.098 278.577 142.712 279.534 142.712 281.36ZM147.233 281.36C147.233 282.394 146.551 283.065 145.572 283.065C144.582 283.065 143.9 282.394 143.9 281.36C143.9 280.326 144.582 279.655 145.572 279.655C146.551 279.655 147.233 280.326 147.233 281.36ZM150.618 279.446V278.72H149.573V284H150.75V280.502C151.047 280.073 151.553 279.622 152.224 279.622C152.928 279.622 153.456 280.029 153.456 280.887V284H154.633V280.733C154.633 279.479 153.786 278.577 152.455 278.577C151.652 278.577 151.003 278.984 150.618 279.446ZM160.539 282.779V280.887C160.539 279.292 159.593 278.577 158.097 278.577C157.25 278.577 156.491 278.786 156.073 278.929V280.007C156.546 279.798 157.195 279.6 157.976 279.6C158.878 279.6 159.362 280.062 159.362 280.722V280.909C158.944 280.821 158.438 280.755 157.987 280.755C156.887 280.755 155.633 281.173 155.633 282.526C155.633 283.615 156.524 284.143 157.481 284.143C158.306 284.143 158.955 283.879 159.472 283.461C159.659 283.89 160.044 284.077 160.528 284.077C160.792 284.077 161.056 284.033 161.276 283.945V283.098C161.166 283.131 161.045 283.164 160.924 283.164C160.715 283.164 160.539 283.076 160.539 282.779ZM158.218 281.58C158.592 281.58 159.043 281.646 159.362 281.712V282.603C158.944 283.021 158.394 283.23 157.833 283.23C157.305 283.23 156.843 282.966 156.843 282.449C156.843 281.789 157.547 281.58 158.218 281.58ZM162.11 275.97V284H163.287V275.97H162.11ZM173.868 278.72L172.691 282.713L171.393 278.72H170.293L169.006 282.713L167.818 278.72H166.575L168.335 284H169.589L170.843 280.216L172.097 284H173.362L175.111 278.72H173.868ZM175.572 281.36C175.572 283.219 176.947 284.143 178.564 284.143C179.301 284.143 179.972 284.011 180.456 283.78V282.768C180.005 282.988 179.422 283.142 178.784 283.142C177.816 283.142 176.892 282.746 176.76 281.8H180.731C181.072 280.271 180.346 278.577 178.245 278.577C177.024 278.577 175.572 279.446 175.572 281.36ZM179.675 280.92H176.749C176.793 280.029 177.508 279.556 178.3 279.556C179.455 279.556 179.741 280.458 179.675 280.92ZM181.928 276.3V284H182.973V283.164C183.391 283.681 184.018 284.143 185.008 284.143C186.592 284.143 187.626 282.878 187.626 281.36C187.626 279.842 186.592 278.577 185.008 278.577C184.084 278.577 183.468 278.995 183.105 279.402V276.3H181.928ZM186.427 281.36C186.427 282.394 185.745 283.109 184.788 283.109C183.974 283.109 183.358 282.581 183.105 281.998V280.711C183.358 280.139 183.974 279.611 184.788 279.611C185.745 279.611 186.427 280.326 186.427 281.36ZM191.096 280.15C191.096 282.042 194.286 281.635 194.286 282.614C194.286 283.043 193.802 283.153 193.142 283.153C192.482 283.153 191.679 282.955 191.129 282.592V283.637C191.646 283.956 192.427 284.143 193.197 284.143C194.396 284.143 195.474 283.758 195.474 282.592C195.474 280.667 192.295 281.14 192.295 280.117C192.295 279.688 192.801 279.545 193.274 279.545C193.901 279.545 194.66 279.765 195.1 280.062V279.028C194.583 278.764 193.923 278.577 193.197 278.577C192.152 278.577 191.096 278.995 191.096 280.15ZM197.737 284V278.72H196.56V284H197.737ZM197.869 277.004C197.869 276.542 197.539 276.311 197.154 276.311C196.769 276.311 196.428 276.542 196.428 277.004C196.428 277.488 196.769 277.708 197.154 277.708C197.539 277.708 197.869 277.488 197.869 277.004ZM199.619 277.125V278.72H198.673V279.754H199.619V282.394C199.619 283.626 200.411 284.132 201.434 284.132C201.951 284.132 202.457 284.044 202.853 283.901V282.889C202.523 283.021 202.171 283.098 201.786 283.098C201.104 283.098 200.785 282.867 200.785 282.174V279.754H202.699V278.72H200.785V276.839L199.619 277.125ZM203.48 281.36C203.48 283.219 204.855 284.143 206.472 284.143C207.209 284.143 207.88 284.011 208.364 283.78V282.768C207.913 282.988 207.33 283.142 206.692 283.142C205.724 283.142 204.8 282.746 204.668 281.8H208.639C208.98 280.271 208.254 278.577 206.153 278.577C204.932 278.577 203.48 279.446 203.48 281.36ZM207.583 280.92H204.657C204.701 280.029 205.416 279.556 206.208 279.556C207.363 279.556 207.649 280.458 207.583 280.92Z" fill="#606060"/>
<path d="M189.883 100L173.355 124.892L156.827 100H150.427V143.452H157.511V112.973L171.243 133.644H175.468L189.2 113.035V143.452H196.283V100H189.883Z" fill="#00C853"/>
<path d="M212.514 143.452V113.656H205.865V143.452H212.514ZM213.259 103.973C213.259 101.366 211.395 100.062 209.22 100.062C207.046 100.062 205.119 101.366 205.119 103.973C205.119 106.704 207.046 107.945 209.22 107.945C211.395 107.945 213.259 106.704 213.259 103.973Z" fill="#00C853"/>
<path d="M220.971 100V143.452H227.62V123.712C229.298 121.291 232.156 118.746 235.946 118.746C239.923 118.746 242.905 121.043 242.905 125.885V143.452H249.554V125.016C249.554 117.939 244.769 112.849 237.251 112.849C233.212 112.849 229.795 114.711 227.62 116.946V100H220.971Z" fill="#00C853"/>
<path fill-rule="evenodd" clip-rule="evenodd" d="M250 158H150V151.211H250V158Z" fill="#00C853"/>
</svg>
