<svg width="400" height="300" viewBox="0 0 400 300" fill="none" xmlns="http://www.w3.org/2000/svg">
<rect width="400" height="300" fill="#F5F5F5"/>
<rect width="400" height="258" fill="#CBF9D5"/>
<path d="M25.935 276.3V284H31.237V282.834H27.189V276.3H25.935ZM31.7019 281.36C31.7019 283.186 33.0879 284.143 34.5619 284.143C36.0469 284.143 37.4219 283.186 37.4219 281.36C37.4219 279.534 36.0469 278.577 34.5619 278.577C33.0879 278.577 31.7019 279.534 31.7019 281.36ZM36.2229 281.36C36.2229 282.394 35.5409 283.065 34.5619 283.065C33.5719 283.065 32.8899 282.394 32.8899 281.36C32.8899 280.326 33.5719 279.655 34.5619 279.655C35.5409 279.655 36.2229 280.326 36.2229 281.36ZM38.2332 281.36C38.2332 282.878 39.2562 284.143 40.8512 284.143C41.7752 284.143 42.3912 283.725 42.7542 283.296V283.967C42.7542 285.155 41.8632 285.529 40.8182 285.529C40.1032 285.529 39.3992 285.342 38.7942 284.99V286.068C39.4212 286.387 40.1692 286.563 40.9722 286.563C42.4792 286.563 43.9312 285.837 43.9312 283.934V278.72H42.8752V279.545C42.4682 279.039 41.8412 278.577 40.8512 278.577C39.2562 278.577 38.2332 279.842 38.2332 281.36ZM42.7432 280.711V282.075C42.4902 282.614 41.8852 283.109 41.0602 283.109C40.1142 283.109 39.4212 282.394 39.4212 281.36C39.4212 280.326 40.1142 279.611 41.0602 279.611C41.8852 279.611 42.4902 280.139 42.7432 280.711ZM45.0759 281.36C45.0759 283.186 46.4619 284.143 47.9359 284.143C49.4209 284.143 50.7959 283.186 50.7959 281.36C50.7959 279.534 49.4209 278.577 47.9359 278.577C46.4619 278.577 45.0759 279.534 45.0759 281.36ZM49.5969 281.36C49.5969 282.394 48.9149 283.065 47.9359 283.065C46.9459 283.065 46.2639 282.394 46.2639 281.36C46.2639 280.326 46.9459 279.655 47.9359 279.655C48.9149 279.655 49.5969 280.326 49.5969 281.36ZM57.2538 279.028L57.8918 276.3H56.9458L55.9998 279.028H57.2538ZM55.4498 279.028L56.0878 276.3H55.1418L54.1958 279.028H55.4498ZM59.1713 276.3V284H60.4253V280.876H64.1653V279.71H60.4253V277.455H64.4843V276.3H59.1713ZM65.5695 275.97V284H66.7465V275.97H65.5695ZM72.0718 278.72V282.218C71.7748 282.647 71.2688 283.098 70.5978 283.098C69.8168 283.098 69.3658 282.691 69.3658 281.833V278.72H68.1888V281.987C68.1888 283.241 68.9698 284.143 70.3668 284.143C71.1698 284.143 71.8188 283.736 72.2038 283.274V284H73.2488V278.72H72.0718ZM74.3914 281.36C74.3914 283.186 75.7774 284.143 77.2514 284.143C78.7364 284.143 80.1114 283.186 80.1114 281.36C80.1114 279.534 78.7364 278.577 77.2514 278.577C75.7774 278.577 74.3914 279.534 74.3914 281.36ZM78.9124 281.36C78.9124 282.394 78.2304 283.065 77.2514 283.065C76.2614 283.065 75.5794 282.394 75.5794 281.36C75.5794 280.326 76.2614 279.655 77.2514 279.655C78.2304 279.655 78.9124 280.326 78.9124 281.36ZM82.2976 279.589V278.72H81.2526V284H82.4296V280.799C82.7486 280.051 83.5736 279.633 84.5196 279.765V278.61C83.5626 278.522 82.7046 278.94 82.2976 279.589ZM86.6089 284V278.72H85.4319V284H86.6089ZM86.7409 277.004C86.7409 276.542 86.4109 276.311 86.0259 276.311C85.6409 276.311 85.2999 276.542 85.2999 277.004C85.2999 277.488 85.6409 277.708 86.0259 277.708C86.4109 277.708 86.7409 277.488 86.7409 277.004ZM88.4911 277.125V278.72H87.5451V279.754H88.4911V282.394C88.4911 283.626 89.2831 284.132 90.3061 284.132C90.8231 284.132 91.3291 284.044 91.7251 283.901V282.889C91.3951 283.021 91.0431 283.098 90.6581 283.098C89.9761 283.098 89.6571 282.867 89.6571 282.174V279.754H91.5711V278.72H89.6571V276.839L88.4911 277.125ZM92.3523 281.36C92.3523 283.219 93.7273 284.143 95.3443 284.143C96.0813 284.143 96.7523 284.011 97.2363 283.78V282.768C96.7853 282.988 96.2023 283.142 95.5643 283.142C94.5963 283.142 93.6723 282.746 93.5403 281.8H97.5113C97.8523 280.271 97.1263 278.577 95.0253 278.577C93.8043 278.577 92.3523 279.446 92.3523 281.36ZM96.4553 280.92H93.5293C93.5733 280.029 94.2883 279.556 95.0803 279.556C96.2353 279.556 96.5213 280.458 96.4553 280.92ZM101.012 279.028L101.947 276.3H100.704L100.055 279.028H101.012ZM99.2081 279.028L100.143 276.3H98.9001L98.2511 279.028H99.2081ZM114.305 276.3L112.567 282.526L110.697 276.3H109.586L107.716 282.526L105.967 276.3H104.603L107.001 284H108.376L110.136 278.258L111.896 284H113.271L115.68 276.3H114.305ZM115.695 281.36C115.695 283.219 117.07 284.143 118.687 284.143C119.424 284.143 120.095 284.011 120.579 283.78V282.768C120.128 282.988 119.545 283.142 118.907 283.142C117.939 283.142 117.015 282.746 116.883 281.8H120.854C121.195 280.271 120.469 278.577 118.368 278.577C117.147 278.577 115.695 279.446 115.695 281.36ZM119.798 280.92H116.872C116.916 280.029 117.631 279.556 118.423 279.556C119.578 279.556 119.864 280.458 119.798 280.92ZM122.051 276.3V284H123.096V283.164C123.514 283.681 124.141 284.143 125.131 284.143C126.715 284.143 127.749 282.878 127.749 281.36C127.749 279.842 126.715 278.577 125.131 278.577C124.207 278.577 123.591 278.995 123.228 279.402V276.3H122.051ZM126.55 281.36C126.55 282.394 125.868 283.109 124.911 283.109C124.097 283.109 123.481 282.581 123.228 281.998V280.711C123.481 280.139 124.097 279.611 124.911 279.611C125.868 279.611 126.55 280.326 126.55 281.36ZM135.993 282.779V280.887C135.993 279.292 135.047 278.577 133.551 278.577C132.704 278.577 131.945 278.786 131.527 278.929V280.007C132 279.798 132.649 279.6 133.43 279.6C134.332 279.6 134.816 280.062 134.816 280.722V280.909C134.398 280.821 133.892 280.755 133.441 280.755C132.341 280.755 131.087 281.173 131.087 282.526C131.087 283.615 131.978 284.143 132.935 284.143C133.76 284.143 134.409 283.879 134.926 283.461C135.113 283.89 135.498 284.077 135.982 284.077C136.246 284.077 136.51 284.033 136.73 283.945V283.098C136.62 283.131 136.499 283.164 136.378 283.164C136.169 283.164 135.993 283.076 135.993 282.779ZM133.672 281.58C134.046 281.58 134.497 281.646 134.816 281.712V282.603C134.398 283.021 133.848 283.23 133.287 283.23C132.759 283.23 132.297 282.966 132.297 282.449C132.297 281.789 133.001 281.58 133.672 281.58ZM137.212 281.36C137.212 282.878 138.235 284.143 139.83 284.143C140.754 284.143 141.37 283.725 141.733 283.296V283.967C141.733 285.155 140.842 285.529 139.797 285.529C139.082 285.529 138.378 285.342 137.773 284.99V286.068C138.4 286.387 139.148 286.563 139.951 286.563C141.458 286.563 142.91 285.837 142.91 283.934V278.72H141.854V279.545C141.447 279.039 140.82 278.577 139.83 278.577C138.235 278.577 137.212 279.842 137.212 281.36ZM141.722 280.711V282.075C141.469 282.614 140.864 283.109 140.039 283.109C139.093 283.109 138.4 282.394 138.4 281.36C138.4 280.326 139.093 279.611 140.039 279.611C140.864 279.611 141.469 280.139 141.722 280.711ZM144.054 281.36C144.054 283.219 145.429 284.143 147.046 284.143C147.783 284.143 148.454 284.011 148.938 283.78V282.768C148.487 282.988 147.904 283.142 147.266 283.142C146.298 283.142 145.374 282.746 145.242 281.8H149.213C149.554 280.271 148.828 278.577 146.727 278.577C145.506 278.577 144.054 279.446 144.054 281.36ZM148.157 280.92H145.231C145.275 280.029 145.99 279.556 146.782 279.556C147.937 279.556 148.223 280.458 148.157 280.92ZM151.456 279.446V278.72H150.411V284H151.588V280.502C151.885 280.073 152.391 279.622 153.062 279.622C153.766 279.622 154.294 280.029 154.294 280.887V284H155.471V280.733C155.471 279.479 154.624 278.577 153.293 278.577C152.49 278.577 151.841 278.984 151.456 279.446ZM156.548 281.404C156.548 283.285 157.989 284.143 159.397 284.143C160.068 284.143 160.64 284.022 161.146 283.78V282.691C160.728 282.933 160.167 283.098 159.606 283.098C158.66 283.098 157.747 282.559 157.747 281.36C157.747 280.117 158.693 279.622 159.628 279.622C160.167 279.622 160.706 279.787 161.091 280.062V278.984C160.629 278.709 160.057 278.577 159.463 278.577C158.055 278.577 156.548 279.435 156.548 281.404ZM164.668 282.702L162.886 278.72H161.632L164.14 284.044L164.03 284.308C163.722 285.133 163.293 285.54 162.721 285.54C162.545 285.54 162.358 285.518 162.182 285.463V286.464C162.413 286.519 162.644 286.552 162.875 286.552C163.678 286.552 164.426 286.09 164.998 284.715L167.473 278.72H166.241L164.668 282.702Z" fill="#606060"/>
<path d="M199.774 83L182.106 101.256L190.491 127.249L199.774 136.842L200.808 135.771L209.057 127.249L217.441 101.256L199.774 83ZM198.33 88.6532V107.544L186.141 101.248L198.33 88.6532ZM201.218 88.6532L213.406 101.248L201.218 107.544V88.6532ZM186.2 104.539L198.33 110.805V131.189L193.03 125.713L186.2 104.539ZM213.347 104.539L206.517 125.713L201.218 131.189V110.805L213.347 104.539ZM155 110.541V136.295L178.758 148.57H191.885V147.12V135.077L180.012 110.541H155ZM219.988 110.541L208.116 135.077V148.57H209.56H221.242L245 136.295V110.541H219.988ZM159.86 113.441H177.124L172.807 126.82L159.86 113.441ZM222.878 113.441H240.14L227.193 126.819L222.878 113.441ZM157.888 115.563L170.821 128.926L157.887 133.381L157.888 115.563ZM242.113 115.563V133.381L229.181 128.926L242.113 115.563ZM220.625 115.863L224.917 129.172L211.004 143.548V135.745L220.625 115.863ZM179.377 115.864L188.997 135.745L188.998 143.548L175.084 129.171L179.377 115.864ZM173.045 131.225L187.026 145.671H179.458L160.117 135.678L173.045 131.225ZM226.955 131.225L239.883 135.678L220.543 145.671H212.975L226.955 131.225ZM166.349 154.511V174H169.201V154.511H166.349ZM214.268 154.511V157.663H217.119V154.511H214.268ZM225.869 154.511L222.966 155.535V160.421H220.768V163.284H222.966V174H225.869V163.284H228.982V160.421H225.869V154.511ZM163.221 154.59C162.663 154.59 162.036 154.616 161.338 154.668C160.658 154.721 160.013 154.887 159.403 155.168C158.792 155.43 158.278 155.859 157.859 156.455C157.441 157.05 157.232 157.899 157.232 159.002V160.447H155.008V163.31H157.258V174H160.109V163.31H163.221V160.447H160.109V159.055C160.109 158.704 160.135 158.416 160.187 158.188C160.257 157.96 160.397 157.785 160.606 157.663C160.815 157.523 161.12 157.426 161.521 157.374C161.94 157.321 162.506 157.295 163.221 157.295V154.59ZM238.846 159.974C237.782 159.974 236.832 160.175 235.995 160.578C235.158 160.981 234.452 161.498 233.876 162.128C233.301 162.758 232.856 163.467 232.542 164.255C232.246 165.043 232.097 165.822 232.097 166.593C232.097 167.714 232.237 168.677 232.516 169.482C232.795 170.27 233.152 170.936 233.588 171.478C234.024 172.021 234.504 172.459 235.027 172.792C235.55 173.124 236.065 173.387 236.57 173.579C237.076 173.755 237.529 173.868 237.93 173.921C238.349 173.974 238.654 174 238.846 174C239.212 174 239.648 173.965 240.153 173.895C240.659 173.807 241.156 173.711 241.644 173.606C242.133 173.483 242.56 173.343 242.926 173.186C243.31 173.028 243.571 172.87 243.711 172.713V169.797C243.31 170.06 242.856 170.288 242.351 170.48C241.915 170.655 241.4 170.813 240.807 170.953C240.232 171.093 239.578 171.163 238.846 171.163C238.131 171.163 237.52 171.032 237.015 170.769C236.526 170.507 236.126 170.2 235.812 169.85C235.515 169.482 235.297 169.123 235.158 168.773C235.018 168.405 234.949 168.125 234.949 167.933H244.992V166.567C244.992 166.427 244.975 166.173 244.94 165.805C244.923 165.42 244.844 164.982 244.705 164.492C244.583 164.002 244.382 163.494 244.103 162.968C243.841 162.426 243.484 161.935 243.031 161.498C242.577 161.06 242.011 160.701 241.33 160.421C240.65 160.123 239.822 159.974 238.846 159.974V159.974ZM172.85 160.001L172.85 169.141C172.85 169.263 172.867 169.465 172.902 169.745C172.937 170.025 173.015 170.349 173.137 170.717C173.26 171.084 173.434 171.461 173.661 171.846C173.887 172.231 174.192 172.582 174.576 172.897C174.96 173.212 175.43 173.474 175.988 173.685C176.564 173.895 177.244 174 178.029 174C178.813 174 179.485 173.895 180.043 173.685C180.601 173.457 181.071 173.177 181.455 172.844C181.839 172.494 182.144 172.126 182.371 171.741C182.615 171.338 182.798 170.962 182.92 170.612C183.042 170.244 183.12 169.929 183.155 169.666C183.19 169.386 183.208 169.211 183.208 169.141V160.001H180.357V169.167C180.357 169.272 180.33 169.43 180.278 169.64C180.243 169.85 180.147 170.069 179.99 170.296C179.833 170.524 179.598 170.725 179.284 170.9C178.988 171.058 178.569 171.137 178.029 171.137C177.505 171.137 177.087 171.058 176.773 170.9C176.459 170.725 176.224 170.524 176.067 170.296C175.91 170.069 175.805 169.85 175.753 169.64C175.718 169.412 175.701 169.246 175.701 169.141V160.001L172.85 160.001ZM193.359 160.001C192.4 160.001 191.493 160.184 190.639 160.552C189.802 160.92 189.061 161.419 188.415 162.049C187.788 162.68 187.291 163.424 186.924 164.282C186.558 165.14 186.375 166.05 186.375 167.013C186.375 167.976 186.558 168.887 186.924 169.745C187.291 170.585 187.788 171.321 188.415 171.951C189.061 172.582 189.802 173.081 190.639 173.448C191.493 173.816 192.4 174 193.359 174C194.318 174 195.216 173.816 196.053 173.448C196.907 173.081 197.648 172.582 198.276 171.951C198.904 171.321 199.401 170.585 199.767 169.745C200.134 168.887 200.316 167.976 200.316 167.013C200.316 166.05 200.134 165.14 199.767 164.282C199.401 163.424 198.904 162.68 198.276 162.049C197.648 161.419 196.907 160.92 196.053 160.552C195.216 160.184 194.318 160.001 193.359 160.001ZM203.894 160.001V174H206.745V165.464C206.745 164.973 206.91 164.562 207.242 164.229C207.573 163.896 207.983 163.634 208.471 163.441C208.977 163.231 209.517 163.082 210.093 162.995C210.668 162.907 211.191 162.863 211.662 162.863V160.001C210.721 160.001 209.936 160.097 209.308 160.289C208.68 160.464 208.175 160.657 207.791 160.867C207.338 161.13 206.989 161.419 206.745 161.734V160.001H203.894ZM214.268 160.001V174H217.119V160.001H214.268ZM238.872 162.417C239.639 162.417 240.232 162.583 240.65 162.916C241.086 163.249 241.418 163.616 241.644 164.019C241.906 164.474 242.072 165 242.141 165.595H234.949C234.949 165.385 235.009 165.105 235.132 164.754C235.254 164.387 235.463 164.036 235.759 163.704C236.056 163.354 236.457 163.056 236.962 162.811C237.468 162.548 238.105 162.417 238.872 162.417V162.417ZM193.359 162.732C193.952 162.732 194.501 162.846 195.007 163.073C195.53 163.301 195.983 163.608 196.367 163.993C196.75 164.378 197.056 164.833 197.282 165.359C197.509 165.866 197.623 166.418 197.623 167.013C197.623 167.608 197.509 168.169 197.282 168.694C197.056 169.202 196.75 169.648 196.367 170.034C195.983 170.419 195.53 170.725 195.007 170.953C194.501 171.163 193.952 171.268 193.359 171.268C192.766 171.268 192.208 171.163 191.685 170.953C191.179 170.725 190.735 170.419 190.351 170.034C189.967 169.648 189.662 169.202 189.436 168.694C189.209 168.169 189.096 167.608 189.096 167.013C189.096 166.418 189.209 165.866 189.436 165.359C189.662 164.833 189.967 164.378 190.351 163.993C190.735 163.608 191.179 163.301 191.685 163.073C192.208 162.846 192.766 162.732 193.359 162.732Z" fill="#00C853"/>
</svg>
