<svg width="30" height="30" viewBox="0 0 30 30" fill="none" xmlns="http://www.w3.org/2000/svg">
<path d="M20.975 21.9883C20.2616 21.9973 19.5529 21.8697 18.886 21.6121C18.2886 21.3761 17.7487 21.0112 17.3039 20.5425C16.8657 20.0635 16.5272 19.4996 16.3089 18.8845C16.0691 18.2041 15.9503 17.4858 15.9581 16.7632C15.953 16.053 16.0752 15.3478 16.3188 14.6821C16.5458 14.0613 16.8952 13.4941 17.3457 13.0152C17.7974 12.5422 18.337 12.165 18.9333 11.9054C19.5792 11.6279 20.2749 11.4899 20.9761 11.5001C21.7298 11.4837 22.4761 11.6523 23.152 11.9913C23.7552 12.3055 24.2784 12.7577 24.6802 13.3121C25.0856 13.8785 25.3781 14.5198 25.5411 15.2001C25.719 15.9233 25.7825 16.6707 25.7291 17.4141L18.6584 17.4141C18.6303 18.1203 18.8686 18.8107 19.3247 19.3445C19.8038 19.7713 20.4303 19.9873 21.0663 19.9452C21.5658 19.957 22.0566 19.8116 22.4714 19.5287C22.8007 19.3246 23.0534 19.0145 23.1893 18.6478L25.5587 18.6478C25.2902 19.6847 24.6724 20.5933 23.8127 21.2157C22.9619 21.7501 21.9751 22.0188 20.975 21.9883ZM20.8992 13.5656C20.5297 13.5515 20.1624 13.6281 19.8283 13.7889C19.567 13.9227 19.3351 14.1088 19.1466 14.336C18.9807 14.5424 18.858 14.7809 18.786 15.0371C18.7225 15.2505 18.6816 15.4702 18.6639 15.6925L23.042 15.6925C23.0105 15.1135 22.793 14.561 22.423 14.1194C22.0135 13.7268 21.461 13.526 20.8992 13.5656ZM10.3113 21.7293L3.74744 21.7293L3.74744 7.99099L10.1244 7.99099C10.7151 7.98574 11.3047 8.04374 11.8835 8.16404C12.3737 8.26123 12.8408 8.45383 13.2589 8.73122C13.6366 8.99742 13.9397 9.35868 14.1385 9.77959C14.358 10.2866 14.4632 10.8371 14.4464 11.3907C14.4702 12.0032 14.3103 12.6086 13.9879 13.1268C13.6351 13.6215 13.1582 14.0113 12.607 14.2556C13.3561 14.4457 14.0145 14.8995 14.4651 15.5362C14.8836 16.1914 15.0953 16.9606 15.072 17.7412C15.0879 18.3655 14.9527 18.9843 14.6784 19.5432C14.4251 20.039 14.0578 20.4653 13.6075 20.7859C13.1407 21.1157 12.6193 21.3577 12.0682 21.5004C11.4929 21.6538 10.9006 21.7311 10.3058 21.7304L10.3113 21.7293ZM6.727 15.6076L6.727 19.3925L9.90446 19.3925C10.1853 19.3956 10.4656 19.3667 10.7401 19.3065C10.9914 19.2573 11.2305 19.1578 11.4437 19.014C11.649 18.8769 11.8157 18.688 11.9275 18.4658C12.0571 18.1871 12.1182 17.8806 12.1056 17.5726C12.1589 17.0011 11.9408 16.438 11.5185 16.0565C11.0628 15.7379 10.5163 15.5809 9.96383 15.6099L6.727 15.6076ZM6.727 10.3323L6.727 13.5421L9.74174 13.5421C10.2081 13.5608 10.6679 13.4257 11.0523 13.157C11.4147 12.8513 11.6056 12.384 11.5625 11.9076C11.5717 11.6342 11.5143 11.3626 11.3953 11.1171C11.2879 10.9187 11.1294 10.7536 10.9369 10.6393C10.7341 10.5172 10.5102 10.4357 10.2772 10.3992C10.0235 10.3509 9.76568 10.3281 9.50755 10.3311L6.727 10.3323ZM23.5939 10.2697L18.1076 10.2697L18.1076 8.9132L23.5939 8.9132L23.5939 10.2686V10.2697Z" fill="#080A0A"/>
</svg>
