<svg width="30" height="30" viewBox="0 0 30 30" fill="none" xmlns="http://www.w3.org/2000/svg">
<path d="M14.7474 25.9907C8.6723 25.9907 3.74744 21.0658 3.74744 14.9907C3.74744 8.91553 8.6723 3.99066 14.7474 3.99066C20.8226 3.99066 25.7474 8.91553 25.7474 14.9907C25.7408 21.063 20.8198 25.984 14.7474 25.9907ZM9.37944 22.1902L9.37394 22.2012C11.8853 24.0825 15.1977 24.5135 18.1068 23.3375C17.6899 21.0949 17.0717 18.8944 16.2599 16.7628C14.3954 17.4129 12.6907 18.4527 11.2593 19.8131C10.5539 20.481 9.94327 21.2423 9.44434 22.0758L9.43664 22.0879V22.0769L9.41684 22.1154L9.40364 22.1374L9.39594 22.1517L9.37724 22.1913L9.37944 22.1902ZM20.0043 16.1402C19.4628 16.1409 18.9218 16.1777 18.3851 16.2502C19.0861 18.2087 19.6376 20.2176 20.0351 22.2595C21.9045 20.9119 23.1751 18.8889 23.5771 16.6198C22.4134 16.2987 21.2116 16.1362 20.0043 16.1369V16.1402ZM5.74614 14.9412V15.0028C5.74814 17.122 6.49801 19.1726 7.86364 20.7932C9.63275 18.0602 12.2496 15.9832 15.3128 14.8807L15.4437 14.8433C15.249 14.4132 15.0664 14.0293 14.8838 13.6707C11.949 14.4936 8.91733 14.9208 5.86934 14.9412H5.74614ZM19.66 14.2746C21.025 14.2796 22.3868 14.404 23.73 14.6464C23.66 12.7856 23.0092 10.9935 21.8688 9.52146C20.5381 11.0097 18.8818 12.1706 17.0288 12.9139L17.0607 12.9007L17.0266 12.915C17.2235 13.3253 17.3962 13.7092 17.5403 14.0513C17.5744 14.1327 17.603 14.2031 17.6294 14.2713L17.6745 14.3813C18.3338 14.3081 18.9967 14.2725 19.66 14.2746ZM10.7621 6.93536C8.36998 8.11607 6.62524 10.2976 5.99914 12.8908C8.56255 12.8512 11.1137 12.5272 13.6056 11.925H13.6199H13.6364L13.6474 11.9107L13.7068 11.8964H13.7134L13.7574 11.8876H13.7673H13.775L13.7981 11.881L13.8421 11.87L13.8674 11.859L13.8916 11.8524H13.9026H13.9136C12.4473 9.27066 10.9293 7.16636 10.761 6.93536H10.7621ZM14.7474 6.01353C14.1453 6.01204 13.5444 6.06915 12.9533 6.18406C14.1057 7.7808 15.1632 9.44394 16.1202 11.1649C17.8342 10.5544 19.3628 9.51439 20.5598 8.14426C18.9348 6.76992 16.8757 6.01511 14.7474 6.01353Z" fill="#080A0A"/>
</svg>
