<svg width="18" height="18" viewBox="0 0 18 18" fill="none" xmlns="http://www.w3.org/2000/svg">
<path d="M9.03516 18C13.9897 18 18 13.9904 18 9.03516C18 4.09804 14.0065 0 9.03516 0C4.08458 0 0 4.08183 0 9.03516C0 14.0109 4.10298 18 9.03516 18ZM4.40799 15.4764C5.06154 12.9858 7.38968 10.9594 10.3675 10.0621C11.0658 12.1223 11.4969 14.2982 11.6278 16.5085C10.8152 16.7911 9.9429 16.9453 9.03516 16.9453C7.31168 16.9453 5.71399 16.4008 4.40799 15.4764ZM12.6558 16.0667C12.4986 13.916 12.0786 11.8179 11.4027 9.80159C13.238 9.42819 15.1514 9.4985 16.89 9.96872C16.5759 12.6275 14.9384 14.8866 12.6558 16.0667ZM10.4404 7.36029C12.2298 6.69342 14.127 5.58751 15.1588 3.98941C16.2471 5.33112 16.9111 7.03564 16.9435 8.89288C15.0726 8.42363 13.0207 8.37364 11.0417 8.79552C10.8501 8.29523 10.6565 7.83449 10.4404 7.36029ZM14.4113 3.187C13.5552 4.73552 11.6378 5.80106 9.98094 6.40613C9.05356 4.58185 7.91908 2.91769 6.59276 1.43742C7.3629 1.18927 8.18358 1.05469 9.03516 1.05469C11.1092 1.05469 12.999 1.86465 14.4113 3.187ZM5.54865 1.85765C6.88554 3.29796 8.03073 4.94756 8.95688 6.73901C6.64384 7.40382 3.93118 7.63097 1.24352 7.30769C1.77525 4.90746 3.39079 2.91014 5.54865 1.85765ZM1.08435 8.35098C3.96442 8.70213 6.90298 8.45384 9.42613 7.69977C9.63213 8.14677 9.82521 8.60133 10.0044 9.0629C7.10637 9.94139 4.48119 11.9206 3.52469 14.7516C2.00363 13.3105 1.05469 11.2806 1.05469 9.03516C1.05469 8.80472 1.06512 8.57661 1.08435 8.35098Z" fill="white"/>
</svg>
