<svg width="30" height="30" viewBox="0 0 30 30" fill="none" xmlns="http://www.w3.org/2000/svg">
<path d="M12.0928 25.9905C10.2614 26.0046 8.62094 24.8602 8.00199 23.1366C7.38304 21.4129 7.92075 19.4863 9.34285 18.3323C8.33417 17.516 7.74814 16.2877 7.74814 14.9901C7.74814 13.6924 8.33417 12.4642 9.34285 11.6478C7.92029 10.4942 7.38226 8.56747 8.00133 6.84374C8.62039 5.12001 10.2613 3.97584 12.0928 3.99074L18.8136 3.99074C20.6451 3.97584 22.286 5.12001 22.9051 6.84374C23.5241 8.56747 22.9861 10.4942 21.5635 11.6478C22.9856 12.8018 23.5234 14.7284 22.9044 16.452C22.2855 18.1757 20.645 19.3201 18.8136 19.3058C17.9677 19.3068 17.14 19.0606 16.4322 18.5974L16.4322 21.6773C16.4219 24.0654 14.4808 25.9946 12.0928 25.9905ZM12.0686 19.3069C10.7657 19.3275 9.7242 20.3967 9.73787 21.6997C9.75153 23.0027 10.8152 24.0498 12.1182 24.0431C13.4213 24.0363 14.4741 22.9782 14.4742 21.6751L14.4742 19.3069L12.0675 19.3069L12.0686 19.3069ZM18.8147 12.6224C17.5084 12.629 16.4541 13.6923 16.4586 14.9986C16.463 16.305 17.5245 17.361 18.8308 17.3588C20.1372 17.3566 21.1951 16.297 21.1951 14.9906C21.1902 13.6795 20.1247 12.6199 18.8136 12.6224L18.8147 12.6224ZM12.0939 12.6223C11.2478 12.6179 10.4636 13.0651 10.0366 13.7955C9.60964 14.526 9.60482 15.4288 10.0239 16.1638C10.4431 16.8988 11.2225 17.3543 12.0686 17.3589L14.4742 17.3589L14.4742 12.6223L12.0939 12.6223ZM16.4322 5.93784L16.4322 10.6755L18.8125 10.6755C20.0857 10.6814 21.1362 9.68041 21.1918 8.40838L21.1918 8.88687L21.1918 8.30608C21.1863 6.99654 20.1232 5.93784 18.8136 5.93784L16.4322 5.93784ZM12.0917 5.93784C11.2456 5.93784 10.4638 6.38923 10.0407 7.12196C9.61768 7.8547 9.61768 8.75747 10.0407 9.4902C10.4638 10.2229 11.2456 10.6743 12.0917 10.6743L14.4742 10.6743L14.4742 5.93784L12.0917 5.93784Z" fill="#080A0A"/>
</svg>
