<svg width="18" height="18" viewBox="0 0 18 18" fill="none" xmlns="http://www.w3.org/2000/svg">
<path d="M9 0C4.05354 0 0 4.0887 0 9.03516C0 13.9529 4.0166 18 9 18C13.9772 18 18 13.959 18 9.03516C18 4.0887 13.9465 0 9 0ZM10.582 16.7871C10.0758 16.8926 9.53792 16.9453 9 16.9453C8.46208 16.9453 7.92416 16.8926 7.41797 16.7871V14.3192C7.41797 13.7285 7.57617 13.5176 7.78711 13.2328C7.8945 13.11 7.95932 12.9998 8.44093 12.2731L7.62891 12.1465C5.54054 11.8407 4.71794 10.7542 4.39096 9.91049C3.96909 8.78206 4.1906 7.36867 4.95003 6.47232C5.06607 6.33513 5.16096 6.10304 5.07664 5.86052C4.9183 5.37534 4.93945 4.60547 5.04492 4.31007C5.60413 4.39 6.17912 4.79059 6.65868 5.08008C6.87964 5.20903 6.99554 5.17497 7.10156 5.18555C7.48691 5.10535 8.088 4.9113 9.01057 4.9113C9.58008 4.9113 10.1813 4.99562 10.772 5.1644C10.8776 5.16193 11.0473 5.25174 11.3415 5.08008C11.8427 4.77466 12.3982 4.3878 12.9551 4.31007C13.0605 4.60547 13.0817 5.37534 12.9235 5.86052C12.839 6.10304 12.9339 6.33513 13.0501 6.47232C13.8094 7.3688 14.0309 8.78206 13.609 9.91049C13.2821 10.7542 12.4595 11.8407 10.3711 12.1465L9.55907 12.2731C10.0569 13.0243 10.1093 13.1144 10.213 13.2328C10.4238 13.5176 10.582 13.7285 10.582 14.3192V16.7871ZM11.6367 16.4813V14.3192C11.6367 13.7179 11.5101 13.3172 11.3413 13.0218C12.9445 12.5895 14.0836 11.6402 14.5898 10.2796C15.1278 8.84537 14.8852 7.13672 13.9886 5.95541C14.147 5.24886 14.147 4.12029 13.7672 3.59294C13.5985 3.36099 13.3664 3.23438 13.0711 3.23438C13.0605 3.23438 13.0605 3.23438 13.0605 3.23438C12.2428 3.27859 11.5991 3.69044 10.909 4.10971C10.2762 3.94093 9.63281 3.85661 8.98943 3.85661C8.3356 3.85661 7.68164 3.95151 7.1017 4.10971C6.37523 3.67163 5.73775 3.2775 4.89729 3.23438C4.63362 3.23438 4.40154 3.36099 4.23276 3.59294C3.85318 4.12029 3.85318 5.24886 4.01138 5.95541C3.11476 7.13672 2.87224 8.8558 3.41016 10.2796C3.91635 11.6402 5.0555 12.5895 6.65868 13.0218C6.5278 13.2507 6.42426 13.5461 6.38347 13.9459C6.05965 14.0576 5.77881 14.0939 5.51761 14.0172C5.24213 13.9357 5.02748 13.7519 4.84099 13.4382C4.42213 12.7345 3.70871 12.1601 2.89641 12.2348L2.98911 13.2854C3.36525 13.2509 3.73961 13.6489 3.93407 13.9769C4.25487 14.5172 4.68704 14.8715 5.21892 15.0286C5.61374 15.1449 5.97464 15.1422 6.36328 15.0592V16.4813C3.29411 15.4054 1.05469 12.4735 1.05469 9.03516C1.05469 4.66878 4.63362 1.05469 9 1.05469C13.3664 1.05469 16.9453 4.66878 16.9453 9.03516C16.9453 12.4735 14.7059 15.4054 11.6367 16.4813Z" fill="white"/>
</svg>
