<svg width="30" height="30" viewBox="0 0 30 30" fill="none" xmlns="http://www.w3.org/2000/svg">
<path d="M14.7469 3.99066C9.35247 3.98995 4.75399 8.00267 3.8903 13.4643C3.02662 18.9259 6.15276 24.2238 11.2708 25.972C11.8221 26.0737 12.0194 25.7266 12.0194 25.4281C12.0194 25.1601 12.0106 24.4499 12.0073 23.5057C8.94795 24.1842 8.3019 21.9927 8.3019 21.9927C8.1005 21.3108 7.66752 20.7255 7.08148 20.3429C6.08927 19.643 7.15755 19.6588 7.15755 19.6588C7.86387 19.7581 8.48552 20.1874 8.84101 20.8213C9.14191 21.3824 9.64884 21.7971 10.2492 21.9731C10.8495 22.1491 11.4935 22.0719 12.0381 21.7587C12.0893 21.1865 12.3375 20.6517 12.7382 20.2502C10.2974 19.9664 7.73083 18.9984 7.73083 14.6754C7.71728 13.5573 8.12209 12.4764 8.86195 11.6551C8.52719 10.6819 8.56662 9.61434 8.9722 8.66985C8.9722 8.66985 9.89496 8.36567 11.9951 9.82438C13.7964 9.31779 15.6974 9.31779 17.4986 9.82438C19.5999 8.36454 20.5216 8.66985 20.5216 8.66985C20.929 9.61389 20.9685 10.6822 20.6318 11.6551C21.3744 12.4763 21.7789 13.5601 21.7607 14.68C21.7607 19.0143 19.192 19.9664 16.7423 20.2457C17.2708 20.7998 17.5418 21.56 17.4865 22.3331C17.4865 23.8416 17.4733 25.0583 17.4733 25.4281C17.4733 25.73 17.6695 26.0805 18.2307 25.9697C23.3466 24.2185 26.4694 18.9204 25.6039 13.4602C24.7385 8.00003 20.1402 3.9894 14.7469 3.99066Z" fill="#080A0A"/>
</svg>
