<svg width="30" height="30" viewBox="0 0 30 30" fill="none" xmlns="http://www.w3.org/2000/svg">
<path d="M14.7413 25.884C11.7363 25.884 11.3821 25.8681 10.2094 25.8169C9.29492 25.7869 8.39228 25.6012 7.54033 25.268C6.06631 24.6952 4.90075 23.5308 4.32767 22.0587C4.00678 21.2049 3.8337 20.3028 3.81584 19.3911C3.74744 18.2225 3.74744 17.8395 3.74744 14.862C3.74744 11.8528 3.76332 11.5015 3.81584 10.3366C3.83409 9.42608 4.00716 8.52525 4.32767 7.67262C4.90012 6.19855 6.06758 5.03322 7.54399 4.46215C8.39742 4.14037 9.29977 3.96709 10.2118 3.94984C11.3784 3.88397 11.762 3.88397 14.7413 3.88397C17.7708 3.88397 18.1189 3.89983 19.2733 3.94984C20.1877 3.96724 21.0924 4.1405 21.9484 4.46215C23.4244 5.03386 24.5917 6.19897 25.1648 7.67262C25.4911 8.53768 25.6651 9.45259 25.679 10.3769C25.7474 11.5454 25.7474 11.9272 25.7474 14.9035C25.7474 17.8798 25.7303 18.2701 25.679 19.4252C25.6608 20.3379 25.4874 21.2408 25.166 22.0953C24.5914 23.5685 23.4241 24.7332 21.9484 25.3058C21.0937 25.6256 20.1908 25.7984 19.2781 25.8169C18.1116 25.884 17.7292 25.884 14.7413 25.884ZM14.6998 5.81489C11.7119 5.81489 11.4016 5.82953 10.2351 5.88198C9.53876 5.89119 8.84919 6.0195 8.1963 6.26133C7.2322 6.62971 6.46931 7.3884 6.09646 8.3496C5.85242 9.00864 5.7239 9.70475 5.71656 10.4074C5.65182 11.5893 5.65182 11.8992 5.65182 14.862C5.65182 17.7895 5.66282 18.1445 5.71656 19.3191C5.7275 20.0146 5.85594 20.7033 6.09646 21.3561C6.46986 22.3167 7.23262 23.0748 8.1963 23.4432C8.84874 23.6866 9.53859 23.815 10.2351 23.8225C11.4175 23.8908 11.729 23.8908 14.6998 23.8908C17.6962 23.8908 18.0065 23.8762 19.1633 23.8225C19.8601 23.8141 20.5502 23.6857 21.2033 23.4432C22.1616 23.0716 22.9195 22.3152 23.2921 21.3586C23.5357 20.699 23.6642 20.0026 23.672 19.2996H23.6855C23.738 18.1335 23.738 17.8224 23.738 14.8425C23.738 11.8626 23.7246 11.5491 23.672 10.3842C23.6611 9.68947 23.5326 9.00158 23.2921 8.3496C22.9203 7.39155 22.1623 6.63372 21.2033 6.26133C20.5503 6.01828 19.8601 5.88993 19.1633 5.88198C17.9821 5.81489 17.673 5.81489 14.6998 5.81489ZM14.7413 20.4962C12.457 20.4977 10.3968 19.1248 9.52151 17.0179C8.6462 14.911 9.12822 12.4851 10.7428 10.8714C12.3573 9.25784 14.7864 8.77441 16.8971 9.64663C19.0078 10.5188 20.3844 12.5749 20.3849 14.8559C20.3815 17.9677 17.8576 20.4901 14.7413 20.4962ZM14.7413 11.1941C12.7174 11.1941 11.0767 12.8325 11.0767 14.8535C11.0767 16.8745 12.7174 18.5128 14.7413 18.5128C16.7652 18.5128 18.406 16.8745 18.406 14.8535C18.4013 12.8344 16.7633 11.1988 14.7413 11.1941ZM20.6047 10.3244C19.8784 10.3217 19.2915 9.73233 19.2928 9.00707C19.2942 8.28181 19.8833 7.69458 20.6096 7.69458C21.3359 7.69458 21.9251 8.2818 21.9264 9.00706C21.9268 9.35697 21.7876 9.69261 21.5395 9.9398C21.2915 10.187 20.9552 10.3254 20.6047 10.3244Z" fill="#080A0A"/>
</svg>
