<svg height="2.3em" viewBox="0 0 512 512" width="2.3em" xmlns="http://www.w3.org/2000/svg"><path fill="white" d="m496.4375 512 10.933594-285.359375c3.050781-9.8125 4.628906-20.113281 4.628906-30.640625v-105c-29.296875 0-95.78125 0-125.152344 0l-30-91h-201.695312l-30 91c-29.378906 0-95.871094 0-125.152344 0v105c0 10.683594 1.625 20.996094 4.632812 30.71875l10.929688 285.28125zm-452-30-7.925781-206.773438c15.050781 12.96875 33.820312 21.804688 54.488281 24.71875v8.777344c0 28.042969 10.921875 54.414063 30.753906 74.246094l14.246094 14.246094 14.246094-14.25c19.832031-19.832032 30.753906-46.199219 30.753906-74.246094v-7.71875h150v7.722656c0 28.042969 10.921875 54.414063 30.753906 74.246094l14.246094 14.246094 14.246094-14.25c19.832031-19.832032 30.753906-46.199219 30.753906-74.246094v-8.8125c20.121094-2.894531 38.933594-11.484375 54.496094-24.960938l-7.933594 207.054688zm316.5625-241h30v67.722656c0 16.457032-5.265625 32.105469-15 45.023438-9.734375-12.917969-15-28.566406-15-45.023438zm-30 30h-150v-150h150zm-210-30h30v67.722656c0 16.457032-5.265625 32.105469-15 45.023438-9.734375-12.917969-15-28.566406-15-45.023438zm361-120v75c0 36.207031-26.234375 66.503906-61 73.484375v-148.484375zm-91 90h-30v-90h30zm-214.152344-181h158.304688l20.109375 61c-6.144531 0-182.863281 0-198.523438 0zm-25.847656 91v90h-30v-90zm-121 0h61v148.527344c-34.746094-6.894532-61-37.238282-61-73.527344zm0 0"/><path fill="white" d="m211 211h90v30h-90zm0 0"/></svg>