<svg width="30" height="30" viewBox="0 0 30 30" fill="none" xmlns="http://www.w3.org/2000/svg">
<path d="M13.3407 11.0345C13.5837 11.0345 13.7808 13.1513 13.7808 15.7626L13.7799 16.1154C13.7624 18.5618 13.5727 20.4907 13.3407 20.4907C13.106 20.4907 12.9144 18.5156 12.9007 16.0279V15.6741C12.9052 13.1031 13.1005 11.0345 13.3407 11.0345ZM11.8152 11.9994C12.0526 11.9994 12.2461 13.8086 12.2552 16.0742V16.4159C12.2461 18.6815 12.0526 20.4907 11.8152 20.4907C11.5814 20.4907 11.3898 18.7267 11.3751 16.5004V16.1586L11.377 15.8169C11.3999 13.673 11.5878 11.9994 11.8152 11.9994ZM10.2896 11.9994C10.5234 11.9994 10.715 13.7634 10.7297 15.9898V16.3315L10.7279 16.6732C10.7049 18.8171 10.517 20.4907 10.2896 20.4907C10.0522 20.4907 9.85875 18.6815 9.84959 16.4159V16.0742C9.85875 13.8086 10.0522 11.9994 10.2896 11.9994ZM8.76411 12.5784C9.00706 12.5784 9.20417 14.3494 9.20417 16.5345L9.20233 16.8712C9.184 18.8986 8.99422 20.4907 8.76411 20.4907C8.52391 20.4907 8.32955 18.7649 8.32405 16.619V16.4501C8.32955 14.3042 8.52391 12.5784 8.76411 12.5784ZM7.23857 14.3152C7.48152 14.3152 7.67863 15.6973 7.67863 17.4029V17.5618C7.66671 19.1931 7.47418 20.4907 7.23857 20.4907C6.99562 20.4907 6.79851 19.1086 6.79851 17.4029V17.2441C6.81043 15.6128 7.00296 14.3152 7.23857 14.3152ZM17.1252 9.49067C19.4905 9.49067 21.4525 11.3863 21.8174 13.8669C22.2386 13.7344 22.6807 13.702 23.1143 13.7717C23.5479 13.8415 23.9629 14.0119 24.3316 14.2715C24.7003 14.5311 25.0143 14.874 25.2525 15.2772C25.4907 15.6804 25.6477 16.1348 25.713 16.6098C25.7783 17.0849 25.7504 17.5698 25.6312 18.0321C25.512 18.4944 25.3041 18.9235 25.0216 19.2907C24.739 19.6579 24.3882 19.9548 23.9927 20.1616C23.5971 20.3683 23.1659 20.4802 22.7277 20.4897L22.67 20.4907L15.189 20.4907C15.0022 20.4907 14.8231 20.4093 14.6911 20.2646C14.5591 20.1198 14.4849 19.9235 14.4849 19.7187L14.4849 10.3681C15.2659 9.79452 16.1851 9.48903 17.1252 9.49067ZM5.71303 14.1222C5.95598 14.1222 6.15309 15.4611 6.15309 17.1135V17.2703C6.14026 18.8483 5.94865 20.1047 5.71303 20.1047C5.47467 20.1047 5.27939 18.8081 5.27297 17.1919V17.1135C5.27297 15.4611 5.47008 14.1222 5.71303 14.1222ZM4.1875 15.0872C4.43044 15.0872 4.62755 16.038 4.62755 17.21V17.3416C4.61289 18.4523 4.42128 19.3328 4.1875 19.3328C3.94455 19.3328 3.74744 18.3819 3.74744 17.21V17.0783C3.76211 15.9676 3.95371 15.0872 4.1875 15.0872Z" fill="#080A0A"/>
</svg>
