<svg width="30" height="30" viewBox="0 0 30 30" fill="none" xmlns="http://www.w3.org/2000/svg">
<path d="M16.0005 26.9997C11.551 27.0055 7.53737 24.3268 5.83559 20.2156C4.1338 16.1044 5.07994 11.3726 8.23178 8.23194C11.0054 5.44831 15.0546 4.35811 18.8509 5.37288C22.6472 6.38765 25.6124 9.35283 26.6271 13.1491C27.6419 16.9454 26.5517 20.9946 23.7681 23.7682C21.7143 25.8395 18.9173 27.0031 16.0005 26.9997ZM14.3688 19.5921C16.3921 19.5499 18.3864 20.0779 20.1237 21.1159C20.2309 21.1878 20.357 21.2261 20.486 21.226C20.721 21.2201 20.9372 21.0958 21.0607 20.8957C21.1568 20.7102 21.1735 20.4937 21.1069 20.2957C21.0506 20.1451 20.9335 20.0252 20.7843 19.9653C18.8283 18.8018 16.5848 18.2109 14.3093 18.2599C12.8975 18.2707 11.4912 18.4365 10.1156 18.7542C9.75494 18.8503 9.53565 19.2153 9.62015 19.5789C9.7053 19.8723 9.96586 20.0804 10.2708 20.0986C10.3294 20.0984 10.3876 20.0898 10.4437 20.0732C11.7301 19.7671 13.0466 19.6058 14.3688 19.5921ZM14.1596 16.3155C16.635 16.2864 19.0734 16.9176 21.2236 18.1443C21.3462 18.2333 21.4938 18.2812 21.6453 18.2808C21.942 18.2693 22.2153 18.1167 22.3808 17.8701C22.5101 17.6815 22.5503 17.4458 22.4909 17.2249C22.4506 17.0335 22.3304 16.8684 22.1606 16.7713C19.7293 15.3673 16.966 14.6407 14.1585 14.6673C12.6785 14.6583 11.2051 14.866 9.7853 15.2839C9.34904 15.4275 9.10541 15.8913 9.2348 16.332C9.3428 16.6882 9.67892 16.9254 10.0506 16.9079C10.1297 16.9086 10.2085 16.8994 10.2852 16.8803C11.5401 16.4946 12.8468 16.3041 14.1596 16.3155ZM14.3677 12.9156C17.1906 12.8342 19.9872 13.4787 22.4898 14.7873C22.6585 14.8795 22.848 14.9269 23.0403 14.9249C23.3817 14.9321 23.7071 14.7803 23.9211 14.5143C24.0542 14.2708 24.0889 13.9855 24.018 13.7171C23.9517 13.4495 23.778 13.2209 23.538 13.0852C20.7158 11.5852 17.5538 10.8403 14.3589 10.9228C12.5898 10.9046 10.8268 11.1321 9.12029 11.5988C8.64095 11.7471 8.34376 12.2254 8.42324 12.7208C8.50271 13.2162 8.93463 13.5776 9.43628 13.5685C9.53395 13.5686 9.63112 13.5545 9.72474 13.5267C11.2345 13.0986 12.7985 12.8924 14.3677 12.9145V12.9156Z" fill="#080A0A"/>
</svg>
