<svg width="30" height="30" viewBox="0 0 30 30" fill="none" xmlns="http://www.w3.org/2000/svg">
<path fill-rule="evenodd" clip-rule="evenodd" d="M5.25982 13.6329C11.1654 11.0926 15.1034 9.41797 17.0737 8.60886C22.6995 6.29867 23.8685 5.89737 24.6305 5.88411C24.7981 5.8812 25.1728 5.9222 25.4155 6.11664C25.6204 6.28082 25.6768 6.5026 25.7038 6.65827C25.7308 6.81393 25.7644 7.16853 25.7377 7.4456C25.4328 10.6081 24.1136 18.2826 23.4425 21.8246C23.1586 23.3233 22.5994 23.8259 22.0581 23.8751C20.8817 23.9819 19.9884 23.1075 18.849 22.3701C17.066 21.2162 16.0588 20.4979 14.3281 19.372C12.328 18.0707 13.6246 17.3555 14.7644 16.1867C15.0627 15.8808 20.246 11.2262 20.3463 10.804C20.3589 10.7512 20.3705 10.5543 20.2521 10.4504C20.1336 10.3464 19.9588 10.382 19.8327 10.4103C19.6538 10.4503 16.8055 12.309 11.2878 15.9862C10.4793 16.5343 9.74702 16.8014 9.09091 16.7874C8.3676 16.7719 6.97624 16.3836 5.94191 16.0517C4.67326 15.6445 3.66497 15.4293 3.75277 14.7378C3.7985 14.3777 4.30085 14.0094 5.25982 13.6329Z" fill="#080A0A"/>
</svg>
