<svg width="29" height="30" viewBox="0 0 29 30" fill="none" xmlns="http://www.w3.org/2000/svg">
<path d="M25.1221 3.88403L25.1221 18.2329L19.3825 23.9713L14.6 23.9713L11.6214 26.841L7.90463 26.841L7.90463 23.9713L3.12207 23.9713L3.12207 7.70959L4.62174 3.88403L25.1221 3.88403ZM23.2093 5.79681L6.94763 5.79681L6.94763 20.1457L10.7732 20.1457L10.7732 23.0143L13.6442 20.1445L19.3825 20.1445L23.2081 16.3189L23.2081 5.79681H23.2093ZM19.3837 9.62237L19.3837 15.3619L17.4697 15.3619L17.4697 9.62359H19.3825L19.3837 9.62237ZM14.6 9.62237L14.6 15.3619L12.6872 15.3619L12.6872 9.62359L14.6 9.62359V9.62237Z" fill="#080A0A"/>
</svg>
