<svg width="18" height="18" viewBox="0 0 18 18" fill="none" xmlns="http://www.w3.org/2000/svg">
<g clip-path="url(#clip0)">
<path d="M16.0221 10.7824L16.0123 10.7734C15.8587 10.6312 15.3879 10.1722 15.2291 9.97158C15.0428 9.72129 15.0858 9.55727 15.2254 9.31152C15.4019 9.00096 15.7555 8.5246 16.1297 8.02016C17.3284 6.40504 18.1022 5.28692 17.9429 4.4927L17.8571 4.06849L13.4305 4.07042C13.415 4.11225 13.184 5.12896 12.2093 6.86021C11.5024 8.11552 11.0388 8.50987 10.8755 8.5795L10.8503 8.57179C10.7971 8.50602 10.7043 8.32852 10.6661 7.87101C10.6263 7.39175 10.6616 6.8115 10.6958 6.25038C10.7357 5.59239 10.7702 5.02411 10.6877 4.61751L10.5532 3.95511C10.3908 3.9291 9.79598 3.69918 8.13882 3.6817C6.70414 3.66698 6.28268 3.87461 6.07573 4.05762L5.39114 4.66291L6.25645 4.95462C6.58577 5.06566 6.69508 5.19377 6.78476 5.82878C6.84326 6.24267 6.87388 6.93823 6.81071 7.55921C6.71994 8.44961 6.50227 8.61527 6.49101 8.62408C6.45352 8.61128 6.1356 8.4719 5.58367 7.30273C5.2008 6.49186 4.86517 5.53267 4.6199 4.8323C4.3392 4.03024 4.38973 4.201 4.24732 3.82205L-0.0351562 3.82191L0.241974 4.54018C1.39733 7.53747 2.45737 9.87815 3.87598 11.5593C5.44332 13.4168 7.3912 14.3893 10.015 14.3893H10.5424V13.8609C10.5424 13.3669 10.5831 13.0113 10.6706 12.7416C10.7241 12.5773 10.795 12.4415 10.8696 12.299C10.9803 12.0893 11.0885 11.9995 11.1476 11.9861C11.2011 11.9739 11.2953 12.0133 11.3997 12.0913C11.6994 12.3151 11.9372 12.6093 12.1891 12.9209C12.5525 13.3704 12.9282 13.8351 13.5243 14.1393C13.8501 14.3055 14.4472 14.3894 14.7758 14.3894C14.8627 14.3894 17.961 14.3893 17.9649 14.3893L17.9422 13.8392C17.9084 13.0166 17.2623 11.9881 16.0221 10.7824ZM14.7963 13.3325H14.7878C14.5612 13.3363 14.1287 13.2618 14.0029 13.1977C13.6066 12.9954 13.3296 12.6527 13.0087 12.2558C12.727 11.9073 12.4357 11.5469 12.0302 11.2441C11.7022 10.999 11.4044 10.9273 11.1679 10.9273C11.0734 10.9273 10.9885 10.9388 10.9158 10.9553C10.6412 11.0172 10.2486 11.215 9.93647 11.8066C9.84844 11.9749 9.7486 12.1654 9.66771 12.4148C9.58298 12.6757 9.53025 12.9656 9.50511 13.3182C7.52785 13.2057 5.98495 12.4219 4.68142 10.8771C3.46949 9.44072 2.51601 7.43166 1.50623 4.87825C1.57929 4.87825 3.41003 4.87853 3.5181 4.87853C3.5512 4.97168 3.58691 5.07378 3.62481 5.18193C3.88917 5.93748 4.25131 6.97208 4.67799 7.85436C5.28897 9.11778 5.84694 9.68125 6.48703 9.68125C6.80659 9.68125 7.0932 9.54557 7.31581 9.28868C7.63318 8.92253 7.81747 8.3182 7.87927 7.44101C7.92802 6.74931 7.88271 6.06036 7.82915 5.68072C7.78493 5.36838 7.72189 5.04048 7.56808 4.74671C8.22356 4.71713 9.10123 4.76391 9.65728 4.84385C9.70781 5.1196 9.67485 5.6616 9.64299 6.18598C9.56595 7.45271 9.48644 8.75989 10.1556 9.37151C10.2733 9.47911 10.3982 9.53677 10.4017 9.53911L10.7423 9.64382C10.8737 9.60323 11.635 9.99015 13.0764 7.46977C13.5382 6.66221 13.9682 5.73164 14.1997 5.12387C14.7367 5.12276 16.566 5.12483 16.781 5.1251C16.4765 5.79644 15.755 6.75399 15.2834 7.38955C14.8722 7.94352 14.5172 8.42195 14.3089 8.78851C13.9219 9.46948 13.987 10.0764 14.3901 10.6118L14.3964 10.6201C14.6213 10.907 15.1768 11.4381 15.292 11.5451C16.1267 12.3571 16.529 12.9404 16.7204 13.3324H14.7963V13.3325Z" fill="white"/>
</g>
<defs>
<clipPath id="clip0">
<rect width="18" height="18" fill="white"/>
</clipPath>
</defs>
</svg>
