<svg viewBox="0 0 32 32" fill="none" xmlns="http://www.w3.org/2000/svg">
<g clip-path="url(#clip0)">
<path d="M7.03223 5.95703C6.74316 5.95703 6.47144 6.06958 6.2666 6.27417C5.84473 6.69629 5.84497 7.38306 6.26685 7.80493C6.47144 8.00952 6.74316 8.12207 7.03223 8.12207C7.32129 8.12207 7.59326 8.00952 7.79785 7.80493C8.21973 7.38306 8.21973 6.69629 7.79761 6.27393C7.59302 6.06958 7.32129 5.95703 7.03223 5.95703Z" fill="#00C853"/>
<path d="M27.8079 10.7993L31.9966 0L21.1973 4.18872L16.2588 9.1272L7.13867 0.00732425L0 7.146L9.12012 16.2661L2.37695 23.0093L0.859375 24.5266C0.312012 25.0742 0.0102539 25.8022 0.0102539 26.5767C0.0102539 27.3511 0.312012 28.0789 0.859375 28.6267L3.36987 31.1372C3.93506 31.7024 4.67749 31.9849 5.41992 31.9849C6.16235 31.9849 6.90479 31.7024 7.46997 31.1372L15.7307 22.8765L24.854 32L31.9927 24.8613L22.8694 15.7378L27.8079 10.7993ZM7.67017 25.6519L24.363 8.95898L25.6802 10.2761L8.9873 26.969L7.67017 25.6519ZM26.6516 8.59692L23.3997 5.34497L28.7124 3.28442L26.6516 8.59692ZM9.13257 13.6279L10.8701 11.8904L9.54468 10.5649L7.80713 12.3025L2.65088 7.146L7.13867 2.65796L14.9333 10.4526L10.4456 14.9407L9.13257 13.6279ZM21.7205 6.31641L23.0376 7.63354L6.34497 24.3264L5.02759 23.0093L21.7205 6.31641ZM6.14478 29.8118C5.95117 30.0054 5.69385 30.1118 5.41992 30.1118C5.14624 30.1118 4.88892 30.0054 4.69531 29.8118L2.18481 27.3013C1.99146 27.1077 1.88477 26.8503 1.88477 26.5767C1.88477 26.303 1.99146 26.0454 2.18481 25.8521L3.70239 24.3345L7.66211 28.2944L6.14478 29.8118ZM29.342 24.8613L24.854 29.3494L22.3455 26.8408L24.083 25.1033L22.7576 23.7778L21.0203 25.5154L19.7029 24.1982L21.4404 22.4607L20.115 21.1353L18.3774 22.8728L17.0559 21.5513L21.5439 17.0632L29.342 24.8613Z" fill="#00C853"/>
</g>
<defs>
<clipPath id="clip0">
<rect width="32" height="32" fill="white"/>
</clipPath>
</defs>
</svg>
