<svg width="61" height="71" viewBox="0 0 61 71" fill="none" xmlns="http://www.w3.org/2000/svg">
<path d="M0.0589905 46.7745L6.81075 50.6728L6.81065 42.8765L0.0589905 46.7745ZM0.0596209 31.1832L6.81027 35.0812L6.81058 27.2856L0.0596209 31.1832ZM27.0642 70.1625L33.8158 66.2645L27.0645 62.3668L27.0642 70.1625ZM33.8158 66.2645L40.5675 62.3664L40.5671 54.5712L33.816 50.6725L27.0647 46.7748L27.0644 54.5705L33.8161 58.4688L33.8158 66.2645ZM33.816 50.6725L40.567 46.7749L40.5673 38.9792L33.816 35.0816L33.8159 27.2852L6.8108 11.6936L0.0591451 15.5916L27.0642 31.1832L27.065 38.9792L33.8157 42.8772L33.816 50.6725Z" fill="#00C853"/>
<path d="M20.3137 19.4897L27.0643 23.3878L27.0646 15.5921L20.3137 19.4897ZM47.3182 58.4691L54.0699 54.571L47.3185 50.6734L47.3182 58.4691ZM54.0699 54.571L60.8215 50.673L60.8211 42.8778L54.0701 38.979L47.3188 35.0814L47.3184 42.877L54.0702 46.7754L54.0699 54.571ZM54.0701 38.979L60.8211 35.0814L60.8214 27.2857L54.07 23.3881L54.07 15.5918L27.0649 0.00012207L20.3132 3.89813L47.3183 19.4898L47.3191 27.2857L54.0697 31.1838L54.0701 38.979Z" fill="#00C853"/>
</svg>
