<svg width="150" height="83" viewBox="0 0 150 83" fill="none" xmlns="http://www.w3.org/2000/svg">
<path d="M150 45.9101C101.34 53.1031 52.0781 66.1849 2.87973 82.253L2.42187 76.6784C52.0129 62.3863 101.531 51.17 150 45.9101ZM70.1527 40.0002C70.8342 39.837 71.4223 40.0379 71.9147 40.6043C72.4072 41.1708 72.6577 42.1248 72.6687 43.4644C72.6831 45.1933 72.4025 46.5777 71.8325 47.6157C71.2864 48.6485 70.606 49.2617 69.7877 49.4582C69.0656 49.6315 68.4601 49.4487 67.969 48.9087C67.478 48.3689 67.2201 47.4059 67.1998 46.0199C67.1742 44.2686 67.4344 42.8881 67.9815 41.8768C68.5523 40.8357 69.2765 40.21 70.1527 40.0002ZM31.5668 37.9852C30.5581 38.2673 29.7237 38.795 29.0676 39.5668C28.4345 40.3077 28.143 41.0996 28.1903 41.9419C28.2375 42.7842 28.5328 43.3731 29.0733 43.7094C29.6127 44.0216 30.395 44.0335 31.4224 43.7457C32.4743 43.4511 33.3037 42.9393 33.9124 42.2081C34.5198 41.453 34.8007 40.5927 34.7529 39.6284C34.7135 38.8327 34.4008 38.2955 33.8133 38.0186C33.2259 37.7417 32.477 37.7306 31.5668 37.9852ZM18.1436 35.955C16.5138 36.431 14.9866 37.1369 13.5667 38.0713C12.1451 38.9818 10.9034 40.0872 9.84202 41.384C8.61888 42.8762 7.70037 44.5115 7.08346 46.2887C6.46641 48.0662 6.17885 50.1711 6.21707 52.6072C6.26595 56.1536 6.31683 59.6994 6.36973 63.2446C6.21279 63.2921 6.05585 63.3399 5.89891 63.3876C4.01563 63.9602 2.53857 64.8173 1.47021 65.9538C0.399613 67.0667 -0.0855369 68.2088 0.0123166 69.3779C0.092196 70.3325 0.567589 70.9928 1.43483 71.3621C2.27627 71.7149 3.36712 71.6847 4.7103 71.2746C7.15611 70.5278 8.90527 68.8637 9.96626 66.2687C11.2701 66.2682 12.6295 66.3639 14.0418 66.5558C15.6006 66.7289 16.9164 66.8165 17.994 66.8181C19.0712 66.8198 20.2323 66.6393 21.48 66.2769C23.2555 65.7611 24.7471 65.0023 25.9574 63.9956C26.674 63.4071 27.3938 62.634 28.1183 61.7152C28.2733 62.0185 28.4491 62.2917 28.6494 62.5314C29.4333 63.4337 30.6033 63.6644 32.1626 63.2272C33.6762 62.8029 35.2325 61.5668 36.8418 59.5325C36.9296 59.8575 37.0257 60.1456 37.1355 60.3792C37.5664 61.2381 38.2362 61.5421 39.1477 61.2929C39.8914 61.0895 40.4228 60.7508 40.7417 60.2731C41.0835 59.7648 41.3619 58.9069 41.5774 57.7002C41.8336 56.3115 42.1871 54.8717 42.6376 53.3821C43.1123 51.886 43.6105 50.6286 44.1331 49.6092C44.6558 48.5897 45.1009 48.0313 45.4651 47.9343C45.7323 47.8631 45.874 48.021 45.8889 48.4078C45.9075 48.8921 45.8486 49.9327 45.715 51.5323C45.5406 53.337 45.4723 54.6989 45.5082 55.617C45.5508 56.7049 45.78 57.5848 46.194 58.2562C46.6312 58.8971 47.2444 59.112 48.0358 58.9029C48.8033 58.7 49.3479 58.3628 49.6705 57.8873C50.017 57.4056 50.3027 56.5487 50.5282 55.3175C50.8393 53.7463 51.2629 52.2188 51.8002 50.7359C52.3374 49.2531 52.8861 48.0364 53.4441 47.0866C54.0013 46.1126 54.4386 45.5857 54.7543 45.5047C55.0215 45.4361 55.1613 45.5958 55.1723 45.9837C55.1888 46.5661 55.0607 47.6602 54.7902 49.2685C54.5019 51.0998 54.3682 52.3559 54.3881 53.0337C54.428 54.3907 54.7717 55.3532 55.4163 55.9203C56.0605 56.4634 56.9934 56.5775 58.216 56.2677C59.7264 55.8851 61.0583 55.137 62.2176 54.0186C62.8743 53.3945 63.5023 52.6995 64.1068 51.9469C64.5652 52.5258 65.1208 52.9915 65.7911 53.3203C66.8106 53.7786 68.0254 53.8355 69.439 53.4954C70.8766 53.1493 72.177 52.4376 73.3464 51.3563C74.5395 50.2451 75.4822 48.891 76.1747 47.2903C76.867 45.6656 77.2136 43.9256 77.2084 42.0726C77.2047 40.7315 76.9472 39.5352 76.4318 38.4836C75.9163 37.432 75.143 36.672 74.1127 36.2061C73.0825 35.716 71.8441 35.6427 70.4015 35.9875C68.9101 36.344 67.5711 37.0821 66.3878 38.2001C65.2039 39.2941 64.273 40.6586 63.5952 42.2905C62.9411 43.8924 62.6345 45.6154 62.6713 47.4615C62.681 47.9506 62.7367 48.4128 62.8138 48.8623C62.3269 49.5334 61.8891 50.1055 61.5281 50.5283C60.8897 51.2734 60.3312 51.7072 59.8495 51.8283C59.1514 52.0039 58.7899 51.6061 58.7662 50.6355C58.7497 49.9574 58.9446 48.502 59.3549 46.2761C59.8299 43.6648 60.0585 41.8902 60.0369 40.9419C60.001 39.3646 59.1897 38.773 57.6 39.1756C56.3049 39.5037 54.9301 40.538 53.4836 42.2784C52.0368 44.0191 50.755 46.5383 49.647 49.8331C49.7046 49.3787 49.8163 48.69 49.9806 47.7682C50.3726 45.613 50.5579 44.1498 50.5321 43.374C50.5055 42.575 50.3024 42.0297 49.923 41.7381C49.5681 41.4402 48.9627 41.4031 48.1077 41.6283C47.2527 41.8535 46.3482 42.4223 45.3974 43.335C44.4701 44.217 43.5696 45.4359 42.6998 46.9893C41.8541 48.5364 41.147 50.3395 40.5767 52.4003C40.6266 51.3116 40.7089 50.3981 40.8239 49.6583C40.9377 48.8946 41.0954 47.9957 41.2969 46.964C41.6037 45.5123 41.749 44.5947 41.7325 44.2077C41.7181 43.8695 41.6113 43.6673 41.4108 43.5994C41.2103 43.5314 40.8652 43.563 40.3768 43.6955C39.4733 43.9407 38.7737 44.3024 38.2769 44.7803C37.8033 45.2276 37.4733 45.8314 37.2871 46.5912C36.5749 49.4383 36.2677 52.3131 36.3479 55.2157C35.7051 56.1821 35.1277 57.0185 34.688 57.5735C34.0674 58.3568 33.541 58.8095 33.1073 58.9306C32.6496 59.0585 32.3146 58.9566 32.1013 58.6253C31.888 58.294 31.7625 57.767 31.7239 57.0445C31.6738 56.1071 31.8666 54.2278 32.3096 51.4168C32.6558 49.0943 32.8156 47.6343 32.7843 47.0306C32.7418 46.2117 32.0981 45.9755 30.8531 46.325C30.0477 46.5511 29.4696 46.8615 29.1198 47.2536C28.7699 47.6458 28.5075 48.2573 28.3317 49.0894C27.9761 50.6816 27.7026 52.3734 27.5099 54.1642C27.3752 55.5595 27.3171 56.7331 27.3288 57.7023C26.7421 58.4404 26.1262 59.075 25.4739 59.586C24.5121 60.3262 23.3324 60.898 21.9344 61.3032C21.38 61.4639 20.7371 61.5771 20.0045 61.6439C19.2703 61.711 18.2216 61.7737 16.8464 61.8358C14.4931 61.942 12.5286 62.0985 10.9658 62.2979C11.0973 61.4021 11.1816 60.3619 11.2187 59.1764C11.2983 56.3752 11.3801 53.5735 11.4639 50.7712C11.5679 47.7301 12.1592 45.3525 13.2415 43.6362C14.3215 41.8968 15.9457 40.7062 18.111 40.0733C19.3411 39.7137 20.2715 39.75 20.8994 40.1794C21.5505 40.5778 21.907 41.2815 21.9696 42.2905C22.0024 42.8191 21.966 43.4405 21.8608 44.1557C21.7988 44.7605 21.775 45.1722 21.7885 45.3884C21.826 45.9889 22.0497 46.4011 22.4614 46.6246C22.8718 46.8241 23.4193 46.8252 24.1033 46.6288C25.0559 46.3553 25.7749 45.6968 26.2614 44.6534C26.7465 43.5863 26.9472 42.3192 26.863 40.8519C26.7389 38.6866 25.9268 37.1322 24.4155 36.1952C22.9049 35.2586 20.811 35.176 18.1436 35.955C18.1436 35.955 18.1436 35.955 18.1436 35.955L18.1436 35.955ZM97.8834 15.9045C100.148 15.4378 101.804 15.6185 102.842 16.4356C103.906 17.2236 104.41 18.4301 104.36 20.0505C104.218 24.6461 101.614 27.7444 96.5938 29.4191C97.0481 26.9585 97.5061 24.4975 97.9678 22.0361C98.0227 21.7808 98.0539 21.4571 98.0628 21.065C98.0779 20.4031 97.904 19.963 97.5389 19.7456C97.1992 19.4986 96.6193 19.4597 95.8014 19.6303C95.0827 19.7803 94.4481 20.0957 93.8969 20.578C93.3708 21.0306 93.0262 21.6895 92.8644 22.5534C92.2211 25.8772 91.7264 28.5495 91.3821 30.5175C91.0641 30.5611 90.6131 30.5975 90.0267 30.6264C89.9047 30.6284 89.7207 30.6549 89.4759 30.7079C88.9373 30.8244 88.5067 31.0767 88.1853 31.4639C87.8884 31.8458 87.7384 32.3058 87.733 32.8437C87.7278 33.3572 87.8325 33.7616 88.0484 34.0561C88.2646 34.3261 88.7375 34.4417 89.467 34.4059C89.3518 34.4078 89.7535 34.3796 90.7079 34.322C90.2743 36.7206 89.8441 39.1189 89.4174 41.5167C89.0828 43.2725 88.6154 44.2153 88.0138 44.3465C87.5804 44.4411 87.1259 44.2234 86.6494 43.6939C86.1972 43.1347 85.8181 42.3034 85.5122 41.2001C85.2306 40.0915 85.0948 38.7791 85.1051 37.2644C85.1297 33.6475 85.6495 30.3261 86.6828 27.2925C87.7407 24.2296 89.2235 21.6978 91.1317 19.7025C93.0639 17.7027 95.3196 16.4327 97.8835 15.9045C97.8835 15.9045 97.8834 15.9045 97.8834 15.9045ZM118.016 10.9155C118.715 10.7895 119.018 11.6633 118.925 13.5356C118.806 15.9264 118.152 18.666 116.981 21.7597C115.811 24.8281 114.297 27.9608 112.451 31.1613C112.616 28.3726 113.031 25.4143 113.703 22.2877C114.375 19.1602 115.117 16.5087 115.931 14.3331C116.744 12.158 117.443 11.0188 118.016 10.9155ZM99.2875 11.5902C95.96 12.2703 92.8891 13.7849 90.1009 16.1181C87.3367 18.4224 85.1315 21.4962 83.4861 25.3288C81.8645 29.1336 81.0657 33.509 81.0566 38.4655C81.0516 41.1011 81.4234 43.2383 82.1646 44.876C82.906 46.5142 83.8848 47.6356 85.1015 48.2438C86.3424 48.8468 87.6904 48.9897 89.1502 48.6733C91.8035 48.0981 93.4606 46.0566 94.1249 42.5247C94.6964 39.4645 95.2738 36.4037 95.8571 33.3423C98.686 32.5577 101.136 31.416 103.22 29.9034C105.302 28.3911 106.917 26.6618 108.06 24.7087C109.202 22.7561 109.818 20.7351 109.897 18.6454C109.964 16.8998 109.603 15.4187 108.807 14.2048C108.036 12.9618 106.839 12.0954 105.216 11.6098C103.617 11.1193 101.639 11.1096 99.2875 11.5902ZM119.02 7.10964C116.889 7.49136 114.982 9.20886 113.32 12.2523C111.683 15.2923 110.403 18.8041 109.472 22.7902C108.565 26.769 108.067 30.2606 107.959 33.2571C107.846 36.3773 108.263 38.8251 109.196 40.5987C110.154 42.369 111.679 43.055 113.782 42.6679C115.311 42.3862 116.693 41.7224 117.931 40.6711C118.515 40.1833 119.079 39.6446 119.629 39.065C119.754 39.4159 119.91 39.7404 120.105 40.0305C120.745 40.9196 121.601 41.2704 122.675 41.0861C123.606 40.9264 124.502 40.3349 125.369 39.3099C126.237 38.2605 126.93 36.8627 127.445 35.1162C127.34 36.7705 127.522 38.0118 127.989 38.8392C128.48 39.6631 129.297 39.9812 130.441 39.7979C131.944 39.5573 133.308 38.9287 134.541 37.9072C135.797 36.882 136.99 35.6367 138.125 34.1706C138.244 34.0241 138.349 33.8651 138.445 33.6969C138.601 33.4965 138.766 33.3016 138.917 33.0985C139.739 32.0224 140.583 30.6996 141.453 29.1294C141.758 29.4768 142.08 29.8961 142.419 30.3862C142.76 30.8515 143.026 31.3517 143.217 31.8878C143.433 32.4206 143.524 33.0076 143.492 33.6488C143.172 33.6576 142.852 33.6666 142.532 33.6759C142.131 33.6596 141.775 33.6738 141.463 33.7187C140.576 33.8466 139.884 34.1794 139.391 34.7169C138.898 35.2545 138.628 35.8456 138.576 36.4894C138.517 37.2324 138.786 37.8536 139.381 38.3537C139.999 38.8504 140.925 39.0087 142.161 38.8329C143.231 38.6807 144.207 38.2631 145.091 37.5779C145.975 36.8928 146.687 36.0618 147.225 35.0825C147.79 34.0753 148.123 33.0499 148.22 32.0075C148.302 31.1389 148.171 30.3729 147.829 29.7083C147.513 29.0162 147.018 28.2003 146.339 27.2652C145.868 26.6684 145.518 26.1662 145.291 25.7567C145.088 25.3441 145.003 24.9522 145.036 24.5802C145.09 23.9605 145.374 23.1729 145.892 22.2193C146.091 21.8732 146.254 21.5323 146.38 21.1963C146.507 20.8603 146.578 20.6176 146.591 20.4688C146.615 20.1959 146.498 20.0161 146.24 19.9294C145.983 19.8428 145.511 19.8478 144.826 19.9443C143.359 20.1513 142.347 20.8366 141.794 21.9938C140.918 23.8134 140.218 25.2442 139.676 26.3067C139.16 27.3619 138.656 28.2808 138.165 29.0639C137.476 30.1414 136.463 31.5408 135.213 33.1872C134.839 33.6163 134.494 33.9958 134.202 34.2906C133.51 34.9848 132.926 35.3707 132.446 35.4463C132.135 35.4955 131.891 35.4119 131.716 35.1952C131.543 34.9538 131.473 34.5971 131.505 34.1274C131.556 33.3901 132.028 31.3757 132.929 28.108C133.731 25.2397 134.157 23.5047 134.202 22.883C134.229 22.512 134.137 22.2819 133.926 22.1928C133.717 22.079 133.33 22.0661 132.768 22.1554C131.961 22.2834 131.337 22.5427 130.9 22.9309C130.488 23.3153 130.16 23.8937 129.916 24.6666C129.186 26.9605 128.46 28.9126 127.736 30.5228C127.035 32.1292 126.387 33.3489 125.788 34.1824C125.213 35.0118 124.747 35.4567 124.386 35.5179C124.121 35.5628 123.934 35.4974 123.826 35.3206C123.718 35.119 123.679 34.7595 123.709 34.2414C123.758 33.3803 124.099 31.6072 124.737 28.9362C124.926 28.1714 125.17 27.3108 125.468 26.3567C125.804 25.1755 125.979 24.4883 125.991 24.2902C126.012 23.9447 125.917 23.7033 125.707 23.5677C125.522 23.4279 125.16 23.4036 124.622 23.4952C123.668 23.6577 122.96 23.9387 122.503 24.3355C122.045 24.7323 121.674 25.3216 121.39 26.1039C120.736 27.9276 120.248 29.6383 119.924 31.2337C119.691 32.3713 119.519 33.5837 119.404 34.8669C118.602 35.8571 117.918 36.6226 117.356 37.1484C116.583 37.8488 115.705 38.2882 114.719 38.4686C114.094 38.583 113.599 38.4673 113.232 38.1202C112.866 37.7486 112.621 37.0729 112.494 36.0956C115.382 31.7986 117.746 27.5781 119.562 23.422C121.378 19.2642 122.386 15.7235 122.546 12.7867C122.658 10.7396 122.394 9.23515 121.751 8.27277C121.135 7.28191 120.223 6.8941 119.02 7.10962C119.02 7.10963 119.02 7.10963 119.02 7.10964L119.02 7.10964Z" fill="#7D7D7D"/>
</svg>
